<svg xmlns="http://www.w3.org/2000/svg" xmlns:xlink="http://www.w3.org/1999/xlink" width="100" zoomAndPan="magnify" viewBox="0 0 75 37.5" height="50" preserveAspectRatio="xMidYMid meet" version="1.0"><defs><g/><clipPath id="9f45d9b097"><path d="M 27 10 L 47 10 L 47 23 L 27 23 Z M 27 10 " clip-rule="nonzero"/></clipPath><clipPath id="9ce2106fa9"><path d="M 31.34375 7.875 L 46.335938 11.96875 L 42.433594 26.25 L 27.441406 22.152344 Z M 31.34375 7.875 " clip-rule="nonzero"/></clipPath><clipPath id="27a254c968"><path d="M 31.34375 7.875 L 46.335938 11.96875 L 42.433594 26.25 L 27.441406 22.152344 Z M 31.34375 7.875 " clip-rule="nonzero"/></clipPath><clipPath id="467ec3cc7c"><path d="M 16.09375 10.371094 L 34.597656 10.371094 L 34.597656 28.875 L 16.09375 28.875 Z M 16.09375 10.371094 " clip-rule="nonzero"/></clipPath></defs><g clip-path="url(#9f45d9b097)"><g clip-path="url(#9ce2106fa9)"><g clip-path="url(#27a254c968)"><path fill="#ffffff" d="M 44.929688 11.761719 C 45.058594 11.796875 45.113281 11.914062 45.046875 12.011719 C 44.351562 13.082031 43.503906 13.859375 42.550781 14.445312 C 42.460938 14.5 42.304688 14.492188 42.203125 14.429688 C 41.453125 13.960938 40.699219 13.496094 39.949219 13.027344 C 39.847656 12.964844 39.820312 12.882812 39.886719 12.84375 C 40.597656 12.40625 41.230469 11.828125 41.75 11.03125 C 41.796875 10.957031 41.9375 10.921875 42.066406 10.957031 C 43.023438 11.226562 43.976562 11.496094 44.929688 11.761719 Z M 45.898438 12.167969 C 45.925781 12.175781 45.9375 12.203125 45.921875 12.226562 C 45.863281 12.320312 45.800781 12.414062 45.742188 12.5 C 45.722656 12.523438 45.6875 12.535156 45.660156 12.527344 C 45.484375 12.46875 45.304688 12.414062 45.128906 12.355469 C 45.101562 12.347656 45.089844 12.320312 45.105469 12.300781 C 45.164062 12.214844 45.222656 12.128906 45.28125 12.039062 C 45.292969 12.015625 45.332031 12.003906 45.359375 12.011719 C 45.539062 12.0625 45.71875 12.117188 45.898438 12.167969 Z M 45.304688 12.996094 C 45.332031 13.007812 45.339844 13.03125 45.324219 13.054688 C 45.257812 13.132812 45.191406 13.210938 45.121094 13.289062 C 45.101562 13.308594 45.066406 13.316406 45.039062 13.304688 C 44.871094 13.238281 44.703125 13.171875 44.535156 13.105469 C 44.507812 13.09375 44.5 13.070312 44.515625 13.050781 C 44.582031 12.976562 44.644531 12.902344 44.707031 12.824219 C 44.726562 12.804688 44.761719 12.796875 44.789062 12.808594 C 44.960938 12.871094 45.132812 12.933594 45.304688 12.996094 Z M 44.648438 13.710938 C 44.675781 13.722656 44.683594 13.746094 44.664062 13.765625 C 44.589844 13.832031 44.515625 13.902344 44.441406 13.96875 C 44.421875 13.984375 44.386719 13.988281 44.359375 13.976562 C 44.199219 13.898438 44.042969 13.824219 43.882812 13.75 C 43.855469 13.738281 43.851562 13.714844 43.867188 13.695312 C 43.941406 13.632812 44.007812 13.570312 44.078125 13.503906 C 44.097656 13.488281 44.132812 13.480469 44.160156 13.492188 C 44.324219 13.566406 44.484375 13.636719 44.648438 13.710938 Z M 43.9375 14.320312 C 43.964844 14.335938 43.96875 14.359375 43.949219 14.375 C 43.871094 14.433594 43.789062 14.488281 43.710938 14.546875 C 43.691406 14.5625 43.652344 14.5625 43.628906 14.546875 C 43.480469 14.464844 43.328125 14.382812 43.179688 14.296875 C 43.15625 14.285156 43.152344 14.261719 43.171875 14.25 C 43.246094 14.195312 43.324219 14.140625 43.398438 14.085938 C 43.414062 14.070312 43.453125 14.066406 43.476562 14.082031 C 43.628906 14.160156 43.785156 14.242188 43.9375 14.320312 Z M 43.179688 14.839844 C 43.203125 14.855469 43.203125 14.878906 43.183594 14.890625 C 43.101562 14.941406 43.015625 14.988281 42.933594 15.035156 C 42.910156 15.050781 42.875 15.046875 42.851562 15.035156 C 42.710938 14.945312 42.570312 14.855469 42.429688 14.765625 C 42.410156 14.75 42.40625 14.730469 42.429688 14.71875 C 42.507812 14.671875 42.589844 14.625 42.667969 14.578125 C 42.6875 14.566406 42.722656 14.566406 42.746094 14.582031 C 42.890625 14.667969 43.035156 14.753906 43.179688 14.839844 Z M 42.015625 14.535156 C 42.113281 14.597656 42.121094 14.691406 42.027344 14.742188 C 41.039062 15.261719 39.957031 15.609375 38.839844 15.886719 C 38.734375 15.910156 38.59375 15.871094 38.53125 15.792969 C 38.054688 15.226562 37.574219 14.65625 37.097656 14.089844 C 37.03125 14.011719 37.042969 13.933594 37.121094 13.917969 C 37.957031 13.710938 38.761719 13.449219 39.5 13.0625 C 39.566406 13.027344 39.703125 13.046875 39.804688 13.113281 C 40.539062 13.585938 41.277344 14.0625 42.015625 14.535156 Z M 42.378906 15.28125 C 42.398438 15.296875 42.398438 15.316406 42.375 15.328125 C 42.289062 15.371094 42.199219 15.410156 42.113281 15.453125 C 42.089844 15.460938 42.054688 15.457031 42.03125 15.441406 C 41.902344 15.347656 41.773438 15.253906 41.644531 15.15625 C 41.625 15.144531 41.625 15.121094 41.648438 15.113281 C 41.730469 15.074219 41.816406 15.035156 41.898438 14.996094 C 41.917969 14.984375 41.953125 14.988281 41.976562 15.003906 C 42.109375 15.09375 42.242188 15.1875 42.378906 15.28125 Z M 41.539062 15.652344 C 41.558594 15.667969 41.554688 15.6875 41.53125 15.695312 C 41.441406 15.730469 41.347656 15.765625 41.257812 15.800781 C 41.234375 15.808594 41.199219 15.804688 41.179688 15.789062 C 41.0625 15.6875 40.941406 15.589844 40.824219 15.488281 C 40.804688 15.472656 40.808594 15.453125 40.832031 15.445312 C 40.917969 15.414062 41.007812 15.378906 41.09375 15.347656 C 41.117188 15.335938 41.148438 15.34375 41.167969 15.359375 C 41.292969 15.457031 41.414062 15.554688 41.539062 15.652344 Z M 40.667969 15.964844 C 40.683594 15.980469 40.679688 16 40.65625 16.007812 C 40.5625 16.039062 40.46875 16.066406 40.375 16.09375 C 40.347656 16.101562 40.316406 16.09375 40.296875 16.078125 C 40.191406 15.976562 40.085938 15.871094 39.976562 15.769531 C 39.960938 15.753906 39.964844 15.734375 39.988281 15.726562 C 40.078125 15.699219 40.167969 15.671875 40.257812 15.640625 C 40.28125 15.636719 40.316406 15.640625 40.332031 15.660156 C 40.445312 15.761719 40.554688 15.863281 40.667969 15.964844 Z M 39.769531 16.230469 C 39.789062 16.246094 39.78125 16.265625 39.753906 16.273438 C 39.660156 16.296875 39.5625 16.324219 39.46875 16.347656 C 39.441406 16.355469 39.410156 16.34375 39.394531 16.328125 C 39.296875 16.222656 39.203125 16.113281 39.109375 16.007812 C 39.09375 15.992188 39.101562 15.972656 39.125 15.964844 C 39.214844 15.941406 39.308594 15.917969 39.398438 15.894531 C 39.421875 15.886719 39.457031 15.898438 39.472656 15.914062 C 39.570312 16.019531 39.671875 16.125 39.769531 16.230469 Z M 36.714844 13.824219 C 36.730469 13.84375 36.726562 13.859375 36.707031 13.863281 C 36.640625 13.878906 36.574219 13.894531 36.507812 13.910156 C 36.492188 13.914062 36.464844 13.902344 36.453125 13.886719 C 36.371094 13.777344 36.285156 13.667969 36.203125 13.558594 C 36.191406 13.539062 36.191406 13.523438 36.210938 13.519531 C 36.269531 13.503906 36.332031 13.492188 36.394531 13.476562 C 36.410156 13.472656 36.4375 13.484375 36.449219 13.5 C 36.539062 13.609375 36.625 13.71875 36.714844 13.824219 Z M 38.855469 16.457031 C 38.871094 16.476562 38.859375 16.496094 38.835938 16.5 C 38.738281 16.523438 38.640625 16.546875 38.542969 16.566406 C 38.515625 16.574219 38.484375 16.5625 38.472656 16.546875 C 38.390625 16.4375 38.304688 16.328125 38.222656 16.21875 C 38.210938 16.199219 38.21875 16.183594 38.242188 16.175781 C 38.335938 16.15625 38.429688 16.132812 38.523438 16.113281 C 38.546875 16.105469 38.578125 16.117188 38.59375 16.132812 C 38.679688 16.242188 38.769531 16.351562 38.855469 16.457031 Z M 37.929688 16.664062 C 37.941406 16.679688 37.929688 16.699219 37.902344 16.707031 C 37.804688 16.726562 37.707031 16.746094 37.605469 16.765625 C 37.582031 16.773438 37.550781 16.761719 37.539062 16.742188 C 37.46875 16.632812 37.398438 16.519531 37.328125 16.410156 C 37.316406 16.390625 37.328125 16.371094 37.351562 16.367188 C 37.445312 16.347656 37.539062 16.328125 37.632812 16.308594 C 37.660156 16.304688 37.6875 16.3125 37.699219 16.332031 C 37.777344 16.441406 37.851562 16.550781 37.929688 16.664062 Z M 36.992188 16.855469 C 37.003906 16.875 36.988281 16.890625 36.964844 16.898438 C 36.863281 16.917969 36.765625 16.9375 36.667969 16.957031 C 36.640625 16.960938 36.613281 16.953125 36.601562 16.933594 C 36.542969 16.820312 36.484375 16.703125 36.425781 16.589844 C 36.417969 16.570312 36.429688 16.554688 36.453125 16.546875 C 36.550781 16.527344 36.644531 16.511719 36.738281 16.492188 C 36.761719 16.484375 36.792969 16.496094 36.800781 16.515625 C 36.863281 16.628906 36.929688 16.742188 36.992188 16.855469 Z M 36.054688 17.042969 C 36.0625 17.0625 36.050781 17.082031 36.023438 17.085938 C 35.925781 17.109375 35.828125 17.128906 35.726562 17.148438 C 35.703125 17.15625 35.675781 17.144531 35.667969 17.125 C 35.621094 17.007812 35.574219 16.890625 35.527344 16.773438 C 35.519531 16.753906 35.535156 16.734375 35.558594 16.730469 C 35.652344 16.710938 35.746094 16.691406 35.839844 16.671875 C 35.867188 16.667969 35.894531 16.679688 35.902344 16.695312 C 35.953125 16.8125 36.003906 16.929688 36.054688 17.042969 Z M 35.125 17.242188 C 35.128906 17.261719 35.113281 17.28125 35.089844 17.289062 C 34.992188 17.308594 34.894531 17.332031 34.796875 17.355469 C 34.769531 17.359375 34.746094 17.347656 34.738281 17.328125 C 34.703125 17.210938 34.671875 17.089844 34.636719 16.972656 C 34.628906 16.953125 34.644531 16.933594 34.671875 16.925781 C 34.761719 16.90625 34.855469 16.882812 34.949219 16.863281 C 34.972656 16.855469 35 16.867188 35.003906 16.886719 C 35.042969 17.003906 35.085938 17.125 35.125 17.242188 Z M 34.359375 16.6875 C 34.382812 16.769531 34.316406 16.859375 34.210938 16.886719 C 33.09375 17.164062 32.011719 17.511719 31.023438 18.03125 C 30.929688 18.078125 30.863281 18.042969 30.878906 17.945312 C 30.96875 17.214844 31.058594 16.488281 31.152344 15.757812 C 31.164062 15.660156 31.230469 15.550781 31.296875 15.515625 C 32.035156 15.128906 32.839844 14.867188 33.675781 14.660156 C 33.753906 14.644531 33.835938 14.695312 33.855469 14.78125 C 34.023438 15.417969 34.191406 16.050781 34.359375 16.6875 Z M 34.203125 17.460938 C 34.207031 17.480469 34.191406 17.5 34.164062 17.507812 C 34.066406 17.53125 33.972656 17.558594 33.875 17.582031 C 33.851562 17.589844 33.828125 17.578125 33.824219 17.558594 C 33.800781 17.4375 33.777344 17.3125 33.757812 17.191406 C 33.753906 17.171875 33.769531 17.152344 33.792969 17.144531 C 33.886719 17.121094 33.976562 17.097656 34.070312 17.074219 C 34.09375 17.066406 34.117188 17.078125 34.121094 17.097656 C 34.148438 17.21875 34.175781 17.339844 34.203125 17.460938 Z M 33.296875 17.710938 C 33.300781 17.730469 33.28125 17.75 33.257812 17.757812 C 33.164062 17.789062 33.070312 17.816406 32.976562 17.847656 C 32.949219 17.855469 32.929688 17.84375 32.929688 17.824219 C 32.917969 17.699219 32.90625 17.574219 32.894531 17.445312 C 32.894531 17.425781 32.910156 17.402344 32.933594 17.398438 C 33.023438 17.367188 33.113281 17.339844 33.203125 17.3125 C 33.226562 17.304688 33.25 17.316406 33.25 17.335938 C 33.265625 17.460938 33.28125 17.585938 33.296875 17.710938 Z M 32.414062 18 C 32.417969 18.019531 32.398438 18.046875 32.371094 18.054688 C 32.28125 18.089844 32.191406 18.121094 32.101562 18.15625 C 32.078125 18.167969 32.058594 18.15625 32.058594 18.136719 C 32.058594 18.007812 32.058594 17.875 32.058594 17.746094 C 32.058594 17.726562 32.078125 17.703125 32.101562 17.691406 C 32.1875 17.660156 32.273438 17.625 32.359375 17.59375 C 32.382812 17.585938 32.402344 17.59375 32.402344 17.617188 C 32.40625 17.746094 32.410156 17.871094 32.414062 18 Z M 31.5625 18.34375 C 31.5625 18.367188 31.542969 18.394531 31.519531 18.402344 C 31.429688 18.441406 31.34375 18.484375 31.253906 18.527344 C 31.234375 18.539062 31.214844 18.527344 31.21875 18.507812 C 31.230469 18.371094 31.242188 18.238281 31.253906 18.101562 C 31.253906 18.082031 31.273438 18.054688 31.296875 18.042969 C 31.378906 18.003906 31.460938 17.964844 31.546875 17.925781 C 31.566406 17.917969 31.585938 17.925781 31.582031 17.945312 C 31.578125 18.078125 31.570312 18.210938 31.5625 18.34375 Z M 31.175781 15.394531 C 31.171875 15.414062 31.15625 15.441406 31.144531 15.449219 C 31.085938 15.480469 31.027344 15.515625 30.972656 15.546875 C 30.957031 15.558594 30.949219 15.546875 30.953125 15.523438 C 30.972656 15.382812 30.996094 15.242188 31.015625 15.101562 C 31.019531 15.078125 31.035156 15.054688 31.046875 15.046875 C 31.101562 15.015625 31.15625 14.984375 31.207031 14.953125 C 31.222656 14.945312 31.230469 14.957031 31.230469 14.980469 C 31.210938 15.117188 31.191406 15.253906 31.175781 15.394531 Z M 30.742188 18.753906 C 30.742188 18.777344 30.71875 18.804688 30.699219 18.816406 C 30.613281 18.863281 30.53125 18.914062 30.449219 18.964844 C 30.425781 18.976562 30.410156 18.96875 30.414062 18.945312 C 30.4375 18.804688 30.460938 18.664062 30.480469 18.523438 C 30.484375 18.503906 30.503906 18.472656 30.523438 18.460938 C 30.605469 18.414062 30.683594 18.367188 30.765625 18.320312 C 30.785156 18.308594 30.800781 18.320312 30.796875 18.339844 C 30.777344 18.480469 30.761719 18.617188 30.742188 18.753906 Z M 28.003906 20.757812 C 27.9375 20.859375 27.921875 20.84375 27.960938 20.714844 C 28.269531 19.78125 28.578125 18.847656 28.886719 17.914062 C 28.929688 17.785156 29 17.621094 29.046875 17.546875 C 29.566406 16.75 30.199219 16.171875 30.910156 15.734375 C 30.976562 15.695312 31.019531 15.742188 31.003906 15.84375 C 30.898438 16.578125 30.792969 17.3125 30.691406 18.050781 C 30.675781 18.148438 30.589844 18.273438 30.5 18.328125 C 29.546875 18.914062 28.695312 19.6875 28.003906 20.757812 Z M 29.964844 19.238281 C 29.960938 19.261719 29.941406 19.292969 29.917969 19.308594 C 29.839844 19.363281 29.761719 19.421875 29.683594 19.480469 C 29.664062 19.496094 29.652344 19.488281 29.65625 19.464844 C 29.6875 19.320312 29.71875 19.171875 29.75 19.023438 C 29.757812 19 29.777344 18.96875 29.796875 18.953125 C 29.871094 18.898438 29.945312 18.84375 30.023438 18.789062 C 30.042969 18.777344 30.054688 18.785156 30.050781 18.808594 C 30.023438 18.953125 29.992188 19.09375 29.964844 19.238281 Z M 29.234375 19.8125 C 29.230469 19.835938 29.207031 19.871094 29.1875 19.886719 C 29.113281 19.953125 29.039062 20.019531 28.96875 20.089844 C 28.949219 20.109375 28.9375 20.101562 28.945312 20.078125 C 28.988281 19.921875 29.027344 19.765625 29.070312 19.613281 C 29.074219 19.585938 29.097656 19.550781 29.113281 19.535156 C 29.183594 19.46875 29.253906 19.40625 29.324219 19.34375 C 29.34375 19.324219 29.351562 19.332031 29.347656 19.355469 C 29.308594 19.507812 29.273438 19.660156 29.234375 19.8125 Z M 28.554688 20.480469 C 28.546875 20.507812 28.527344 20.546875 28.507812 20.566406 C 28.441406 20.640625 28.375 20.722656 28.308594 20.800781 C 28.289062 20.824219 28.28125 20.816406 28.289062 20.792969 C 28.339844 20.628906 28.390625 20.460938 28.441406 20.296875 C 28.449219 20.273438 28.46875 20.234375 28.484375 20.214844 C 28.546875 20.136719 28.613281 20.0625 28.675781 19.988281 C 28.695312 19.96875 28.703125 19.976562 28.695312 20 C 28.648438 20.160156 28.601562 20.320312 28.554688 20.480469 Z M 27.9375 21.261719 C 27.925781 21.289062 27.90625 21.328125 27.890625 21.351562 C 27.828125 21.441406 27.769531 21.535156 27.707031 21.625 C 27.691406 21.652344 27.6875 21.648438 27.695312 21.621094 C 27.753906 21.445312 27.8125 21.269531 27.871094 21.09375 C 27.878906 21.066406 27.898438 21.023438 27.914062 21 C 27.96875 20.910156 28.027344 20.824219 28.085938 20.738281 C 28.101562 20.71875 28.109375 20.722656 28.097656 20.75 C 28.042969 20.917969 27.988281 21.089844 27.9375 21.261719 Z M 29.265625 16.824219 C 29.277344 16.792969 29.292969 16.757812 29.300781 16.742188 C 29.339844 16.683594 29.378906 16.625 29.417969 16.570312 C 29.429688 16.554688 29.429688 16.566406 29.421875 16.59375 C 29.367188 16.761719 29.3125 16.933594 29.257812 17.105469 C 29.25 17.132812 29.234375 17.167969 29.222656 17.183594 C 29.179688 17.242188 29.136719 17.304688 29.097656 17.371094 C 29.085938 17.386719 29.085938 17.378906 29.09375 17.347656 C 29.152344 17.171875 29.210938 17 29.265625 16.824219 Z M 29.648438 16.289062 C 29.65625 16.261719 29.671875 16.230469 29.683594 16.21875 C 29.726562 16.167969 29.769531 16.117188 29.8125 16.066406 C 29.824219 16.054688 29.828125 16.066406 29.820312 16.089844 C 29.773438 16.25 29.726562 16.410156 29.683594 16.574219 C 29.675781 16.597656 29.65625 16.628906 29.644531 16.644531 C 29.597656 16.695312 29.554688 16.75 29.507812 16.804688 C 29.496094 16.820312 29.492188 16.808594 29.5 16.785156 C 29.550781 16.621094 29.601562 16.453125 29.648438 16.289062 Z M 30.070312 15.832031 C 30.078125 15.804688 30.09375 15.777344 30.105469 15.765625 C 30.152344 15.71875 30.199219 15.675781 30.246094 15.636719 C 30.257812 15.625 30.261719 15.636719 30.257812 15.660156 C 30.21875 15.8125 30.183594 15.964844 30.144531 16.113281 C 30.140625 16.140625 30.125 16.167969 30.109375 16.179688 C 30.058594 16.226562 30.007812 16.273438 29.960938 16.320312 C 29.945312 16.332031 29.941406 16.320312 29.949219 16.296875 C 29.988281 16.140625 30.03125 15.984375 30.070312 15.832031 Z M 30.527344 15.4375 C 30.535156 15.414062 30.546875 15.386719 30.5625 15.375 C 30.609375 15.339844 30.660156 15.300781 30.710938 15.265625 C 30.726562 15.257812 30.730469 15.269531 30.726562 15.292969 C 30.699219 15.4375 30.671875 15.578125 30.644531 15.722656 C 30.640625 15.746094 30.625 15.773438 30.609375 15.785156 C 30.554688 15.824219 30.503906 15.863281 30.449219 15.902344 C 30.433594 15.914062 30.429688 15.902344 30.433594 15.878906 C 30.464844 15.730469 30.496094 15.585938 30.527344 15.4375 Z M 31.535156 14.820312 C 31.535156 14.796875 31.550781 14.773438 31.5625 14.765625 C 31.617188 14.742188 31.675781 14.714844 31.730469 14.6875 C 31.746094 14.683594 31.757812 14.695312 31.753906 14.714844 C 31.75 14.847656 31.742188 14.980469 31.734375 15.113281 C 31.734375 15.136719 31.71875 15.15625 31.703125 15.164062 C 31.644531 15.191406 31.582031 15.21875 31.523438 15.25 C 31.507812 15.257812 31.496094 15.246094 31.5 15.222656 C 31.511719 15.089844 31.523438 14.953125 31.535156 14.820312 Z M 32.074219 14.582031 C 32.074219 14.558594 32.085938 14.539062 32.101562 14.53125 C 32.160156 14.507812 32.21875 14.488281 32.277344 14.464844 C 32.292969 14.460938 32.304688 14.472656 32.304688 14.492188 C 32.308594 14.621094 32.3125 14.75 32.316406 14.878906 C 32.316406 14.898438 32.304688 14.921875 32.289062 14.925781 C 32.226562 14.949219 32.164062 14.972656 32.101562 14.996094 C 32.085938 15.003906 32.070312 14.992188 32.070312 14.972656 C 32.074219 14.839844 32.074219 14.710938 32.074219 14.582031 Z M 32.636719 14.378906 C 32.632812 14.359375 32.644531 14.339844 32.660156 14.335938 C 32.71875 14.316406 32.78125 14.296875 32.839844 14.277344 C 32.855469 14.273438 32.871094 14.285156 32.871094 14.304688 C 32.886719 14.429688 32.902344 14.554688 32.917969 14.679688 C 32.921875 14.699219 32.910156 14.71875 32.894531 14.726562 C 32.828125 14.746094 32.765625 14.765625 32.699219 14.785156 C 32.683594 14.789062 32.667969 14.777344 32.667969 14.757812 C 32.65625 14.632812 32.644531 14.507812 32.636719 14.378906 Z M 33.210938 14.210938 C 33.207031 14.1875 33.21875 14.171875 33.234375 14.164062 C 33.296875 14.148438 33.355469 14.132812 33.417969 14.117188 C 33.433594 14.113281 33.449219 14.125 33.453125 14.144531 C 33.480469 14.265625 33.507812 14.386719 33.535156 14.507812 C 33.542969 14.527344 33.53125 14.546875 33.511719 14.550781 C 33.449219 14.570312 33.382812 14.585938 33.316406 14.605469 C 33.300781 14.609375 33.28125 14.597656 33.277344 14.578125 C 33.257812 14.453125 33.234375 14.332031 33.210938 14.210938 Z M 33.800781 14.0625 C 33.796875 14.042969 33.804688 14.023438 33.820312 14.019531 C 33.882812 14.003906 33.945312 13.992188 34.007812 13.976562 C 34.023438 13.972656 34.042969 13.984375 34.046875 14.003906 C 34.085938 14.125 34.125 14.242188 34.167969 14.359375 C 34.171875 14.378906 34.164062 14.398438 34.144531 14.402344 C 34.078125 14.417969 34.011719 14.433594 33.945312 14.449219 C 33.929688 14.453125 33.910156 14.4375 33.902344 14.421875 C 33.871094 14.300781 33.835938 14.179688 33.800781 14.0625 Z M 34.398438 13.929688 C 34.390625 13.910156 34.398438 13.894531 34.414062 13.890625 C 34.476562 13.875 34.539062 13.863281 34.601562 13.851562 C 34.621094 13.847656 34.640625 13.859375 34.648438 13.878906 C 34.699219 13.992188 34.75 14.109375 34.800781 14.226562 C 34.8125 14.242188 34.804688 14.261719 34.785156 14.265625 C 34.71875 14.277344 34.648438 14.292969 34.582031 14.308594 C 34.566406 14.3125 34.542969 14.300781 34.539062 14.28125 C 34.492188 14.164062 34.445312 14.046875 34.398438 13.929688 Z M 35 13.804688 C 34.992188 13.789062 34.996094 13.769531 35.011719 13.765625 C 35.078125 13.753906 35.140625 13.742188 35.203125 13.730469 C 35.21875 13.726562 35.242188 13.738281 35.25 13.753906 C 35.316406 13.871094 35.378906 13.984375 35.441406 14.097656 C 35.453125 14.113281 35.445312 14.132812 35.429688 14.136719 C 35.359375 14.148438 35.292969 14.164062 35.226562 14.175781 C 35.207031 14.179688 35.1875 14.167969 35.175781 14.148438 C 35.117188 14.035156 35.058594 13.921875 35 13.804688 Z M 36.671875 14.023438 C 36.75 14.003906 36.867188 14.050781 36.929688 14.128906 C 37.390625 14.699219 37.851562 15.273438 38.3125 15.84375 C 38.375 15.921875 38.339844 16.003906 38.234375 16.027344 C 37.105469 16.285156 35.945312 16.488281 34.816406 16.742188 C 34.707031 16.769531 34.601562 16.71875 34.578125 16.632812 C 34.394531 16.003906 34.210938 15.371094 34.027344 14.742188 C 34 14.65625 34.046875 14.574219 34.125 14.554688 C 34.96875 14.363281 35.828125 14.214844 36.671875 14.023438 Z M 35.601562 13.683594 C 35.59375 13.667969 35.597656 13.648438 35.613281 13.644531 C 35.675781 13.632812 35.738281 13.621094 35.800781 13.605469 C 35.816406 13.601562 35.839844 13.613281 35.851562 13.632812 C 35.929688 13.742188 36.003906 13.855469 36.082031 13.964844 C 36.09375 13.984375 36.089844 14 36.070312 14.003906 C 36.003906 14.019531 35.9375 14.03125 35.867188 14.046875 C 35.851562 14.050781 35.828125 14.039062 35.816406 14.019531 C 35.746094 13.90625 35.675781 13.796875 35.601562 13.683594 Z M 36.796875 13.417969 C 36.78125 13.398438 36.78125 13.382812 36.796875 13.378906 C 36.859375 13.363281 36.921875 13.347656 36.980469 13.332031 C 36.996094 13.324219 37.023438 13.335938 37.039062 13.351562 C 37.140625 13.457031 37.238281 13.5625 37.339844 13.667969 C 37.355469 13.683594 37.355469 13.703125 37.335938 13.707031 C 37.273438 13.726562 37.207031 13.742188 37.140625 13.757812 C 37.125 13.761719 37.097656 13.753906 37.082031 13.734375 C 36.988281 13.628906 36.890625 13.523438 36.796875 13.417969 Z M 37.378906 13.257812 C 37.363281 13.238281 37.359375 13.222656 37.375 13.21875 C 37.4375 13.199219 37.496094 13.179688 37.554688 13.160156 C 37.570312 13.15625 37.597656 13.164062 37.617188 13.183594 C 37.726562 13.285156 37.839844 13.386719 37.953125 13.488281 C 37.96875 13.503906 37.96875 13.519531 37.953125 13.527344 C 37.890625 13.546875 37.824219 13.566406 37.761719 13.585938 C 37.742188 13.59375 37.714844 13.582031 37.699219 13.566406 C 37.59375 13.460938 37.484375 13.359375 37.378906 13.257812 Z M 37.945312 13.070312 C 37.925781 13.050781 37.925781 13.035156 37.941406 13.03125 C 38 13.007812 38.054688 12.984375 38.113281 12.964844 C 38.128906 12.957031 38.15625 12.964844 38.175781 12.980469 C 38.300781 13.078125 38.421875 13.175781 38.546875 13.273438 C 38.566406 13.289062 38.570312 13.308594 38.550781 13.3125 C 38.492188 13.339844 38.429688 13.363281 38.367188 13.386719 C 38.347656 13.390625 38.320312 13.382812 38.300781 13.367188 C 38.183594 13.265625 38.066406 13.167969 37.945312 13.070312 Z M 38.496094 12.847656 C 38.476562 12.832031 38.46875 12.8125 38.484375 12.808594 C 38.542969 12.78125 38.597656 12.753906 38.652344 12.726562 C 38.667969 12.722656 38.695312 12.726562 38.71875 12.742188 C 38.851562 12.835938 38.984375 12.929688 39.121094 13.019531 C 39.140625 13.035156 39.144531 13.054688 39.128906 13.0625 C 39.070312 13.089844 39.011719 13.117188 38.949219 13.144531 C 38.933594 13.152344 38.90625 13.148438 38.882812 13.132812 C 38.753906 13.035156 38.625 12.941406 38.496094 12.847656 Z M 39.023438 12.582031 C 39 12.570312 38.992188 12.550781 39.007812 12.542969 C 39.0625 12.511719 39.113281 12.480469 39.167969 12.449219 C 39.179688 12.441406 39.210938 12.445312 39.234375 12.460938 C 39.378906 12.546875 39.523438 12.632812 39.667969 12.722656 C 39.691406 12.734375 39.695312 12.753906 39.683594 12.761719 C 39.625 12.796875 39.570312 12.832031 39.511719 12.863281 C 39.496094 12.871094 39.464844 12.867188 39.441406 12.851562 C 39.300781 12.761719 39.164062 12.671875 39.023438 12.582031 Z M 39.523438 12.269531 C 39.5 12.257812 39.492188 12.238281 39.503906 12.230469 C 39.554688 12.195312 39.605469 12.15625 39.65625 12.121094 C 39.667969 12.109375 39.699219 12.113281 39.722656 12.125 C 39.878906 12.207031 40.03125 12.285156 40.183594 12.367188 C 40.210938 12.378906 40.21875 12.398438 40.207031 12.410156 C 40.152344 12.449219 40.097656 12.488281 40.042969 12.527344 C 40.03125 12.535156 40 12.535156 39.972656 12.519531 C 39.824219 12.4375 39.671875 12.355469 39.523438 12.269531 Z M 39.996094 11.902344 C 39.96875 11.890625 39.957031 11.871094 39.96875 11.859375 C 40.019531 11.820312 40.0625 11.777344 40.109375 11.730469 C 40.121094 11.71875 40.152344 11.71875 40.179688 11.730469 C 40.34375 11.804688 40.507812 11.875 40.671875 11.949219 C 40.695312 11.960938 40.707031 11.980469 40.695312 11.992188 C 40.644531 12.039062 40.59375 12.085938 40.542969 12.132812 C 40.53125 12.144531 40.5 12.140625 40.472656 12.128906 C 40.3125 12.054688 40.152344 11.976562 39.996094 11.902344 Z M 40.429688 11.472656 C 40.402344 11.460938 40.390625 11.441406 40.402344 11.429688 C 40.445312 11.378906 40.488281 11.328125 40.53125 11.277344 C 40.542969 11.265625 40.574219 11.261719 40.601562 11.273438 C 40.773438 11.335938 40.945312 11.398438 41.117188 11.460938 C 41.144531 11.472656 41.15625 11.492188 41.144531 11.507812 C 41.101562 11.5625 41.054688 11.613281 41.007812 11.667969 C 40.996094 11.679688 40.964844 11.683594 40.9375 11.671875 C 40.769531 11.605469 40.597656 11.539062 40.429688 11.472656 Z M 40.828125 10.96875 C 40.800781 10.960938 40.789062 10.941406 40.796875 10.925781 C 40.835938 10.871094 40.875 10.8125 40.914062 10.753906 C 40.921875 10.738281 40.953125 10.730469 40.984375 10.738281 C 41.164062 10.792969 41.34375 10.84375 41.523438 10.894531 C 41.550781 10.90625 41.566406 10.925781 41.554688 10.941406 C 41.515625 11.003906 41.472656 11.066406 41.433594 11.128906 C 41.421875 11.144531 41.386719 11.148438 41.359375 11.140625 C 41.183594 11.082031 41.007812 11.027344 40.828125 10.96875 Z M 29.25 16.734375 C 28.648438 18.542969 28.046875 20.347656 27.445312 22.152344 C 31.671875 14.910156 42.101562 19.210938 46.332031 11.96875 C 44.496094 11.476562 42.660156 10.984375 40.824219 10.492188 C 38.230469 14.929688 31.839844 12.296875 29.25 16.734375 " fill-opacity="1" fill-rule="nonzero"/></g></g></g><g clip-path="url(#467ec3cc7c)"><path fill="#000309" d="M 34.601562 19.625 C 34.601562 20.230469 34.539062 20.832031 34.421875 21.429688 C 34.304688 22.027344 34.128906 22.605469 33.894531 23.164062 C 33.664062 23.726562 33.378906 24.257812 33.039062 24.765625 C 32.703125 25.269531 32.320312 25.738281 31.890625 26.167969 C 31.460938 26.597656 30.992188 26.980469 30.488281 27.316406 C 29.984375 27.65625 29.449219 27.941406 28.886719 28.171875 C 28.328125 28.40625 27.75 28.582031 27.152344 28.699219 C 26.558594 28.816406 25.957031 28.875 25.347656 28.875 C 24.738281 28.875 24.136719 28.816406 23.542969 28.699219 C 22.945312 28.582031 22.367188 28.40625 21.808594 28.171875 C 21.246094 27.941406 20.710938 27.65625 20.207031 27.316406 C 19.703125 26.980469 19.234375 26.597656 18.804688 26.167969 C 18.375 25.738281 17.992188 25.269531 17.65625 24.765625 C 17.316406 24.257812 17.03125 23.726562 16.800781 23.164062 C 16.566406 22.605469 16.390625 22.027344 16.273438 21.429688 C 16.15625 20.832031 16.09375 20.230469 16.09375 19.625 C 16.09375 19.015625 16.15625 18.414062 16.273438 17.820312 C 16.390625 17.222656 16.566406 16.644531 16.800781 16.085938 C 17.03125 15.523438 17.316406 14.988281 17.65625 14.484375 C 17.992188 13.980469 18.375 13.511719 18.804688 13.082031 C 19.234375 12.652344 19.703125 12.269531 20.207031 11.933594 C 20.710938 11.59375 21.246094 11.308594 21.808594 11.078125 C 22.367188 10.84375 22.945312 10.667969 23.542969 10.550781 C 24.136719 10.433594 24.738281 10.371094 25.347656 10.371094 C 25.957031 10.371094 26.558594 10.433594 27.152344 10.550781 C 27.75 10.667969 28.328125 10.84375 28.886719 11.078125 C 29.449219 11.308594 29.984375 11.59375 30.488281 11.933594 C 30.992188 12.269531 31.460938 12.652344 31.890625 13.082031 C 32.320312 13.511719 32.703125 13.980469 33.039062 14.484375 C 33.378906 14.988281 33.664062 15.523438 33.894531 16.085938 C 34.128906 16.644531 34.304688 17.222656 34.421875 17.820312 C 34.539062 18.414062 34.601562 19.015625 34.601562 19.625 Z M 34.601562 19.625 " fill-opacity="1" fill-rule="nonzero"/></g><path fill="#e8e8e8" d="M 33.683594 19.625 C 33.683594 20.171875 33.632812 20.714844 33.523438 21.25 C 33.417969 21.789062 33.257812 22.308594 33.050781 22.816406 C 32.839844 23.320312 32.582031 23.800781 32.28125 24.257812 C 31.976562 24.710938 31.628906 25.132812 31.242188 25.519531 C 30.855469 25.90625 30.433594 26.253906 29.980469 26.558594 C 29.523438 26.859375 29.042969 27.117188 28.539062 27.328125 C 28.03125 27.535156 27.511719 27.695312 26.972656 27.800781 C 26.4375 27.910156 25.894531 27.960938 25.347656 27.960938 C 24.800781 27.960938 24.257812 27.910156 23.722656 27.800781 C 23.183594 27.695312 22.664062 27.535156 22.15625 27.328125 C 21.652344 27.117188 21.171875 26.859375 20.714844 26.558594 C 20.261719 26.253906 19.839844 25.90625 19.453125 25.519531 C 19.066406 25.132812 18.71875 24.710938 18.414062 24.257812 C 18.113281 23.800781 17.855469 23.320312 17.644531 22.816406 C 17.4375 22.308594 17.277344 21.789062 17.171875 21.25 C 17.0625 20.714844 17.011719 20.171875 17.011719 19.625 C 17.011719 19.078125 17.0625 18.535156 17.171875 18 C 17.277344 17.460938 17.4375 16.941406 17.644531 16.433594 C 17.855469 15.929688 18.113281 15.449219 18.414062 14.992188 C 18.71875 14.539062 19.066406 14.117188 19.453125 13.730469 C 19.839844 13.34375 20.261719 12.996094 20.714844 12.691406 C 21.171875 12.386719 21.652344 12.132812 22.15625 11.921875 C 22.664062 11.710938 23.183594 11.554688 23.722656 11.449219 C 24.257812 11.339844 24.800781 11.289062 25.347656 11.289062 C 25.894531 11.289062 26.4375 11.339844 26.972656 11.449219 C 27.511719 11.554688 28.03125 11.710938 28.539062 11.921875 C 29.042969 12.132812 29.523438 12.386719 29.980469 12.691406 C 30.433594 12.996094 30.855469 13.34375 31.242188 13.730469 C 31.628906 14.117188 31.976562 14.539062 32.28125 14.992188 C 32.582031 15.449219 32.839844 15.929688 33.050781 16.433594 C 33.257812 16.941406 33.417969 17.460938 33.523438 18 C 33.632812 18.535156 33.683594 19.078125 33.683594 19.625 Z M 33.683594 19.625 " fill-opacity="1" fill-rule="nonzero"/><path fill="#000309" d="M 20.992188 17.449219 L 17.691406 19.339844 C 17.6875 19.433594 17.683594 19.527344 17.683594 19.625 C 17.683594 22.238281 18.992188 24.542969 20.988281 25.925781 Z M 29.410156 16.9375 L 29.417969 13.132812 C 28.238281 12.390625 26.84375 11.960938 25.347656 11.960938 C 24.171875 11.960938 23.058594 12.226562 22.0625 12.699219 Z M 21.285156 22.308594 L 21.277344 26.117188 C 22.457031 26.859375 23.851562 27.289062 25.347656 27.289062 C 26.523438 27.289062 27.636719 27.023438 28.632812 26.550781 Z M 25.050781 14.765625 L 17.707031 19.011719 C 17.921875 16.339844 19.503906 14.050781 21.753906 12.855469 Z M 25.644531 24.484375 L 32.988281 20.238281 C 32.773438 22.910156 31.191406 25.199219 28.941406 26.394531 Z M 29.703125 21.800781 L 33.003906 19.910156 C 33.007812 19.816406 33.011719 19.71875 33.011719 19.625 C 33.011719 17.011719 31.703125 14.707031 29.707031 13.320312 Z M 29.703125 21.800781 " fill-opacity="1" fill-rule="evenodd"/><path fill="#000309" d="M 24.300781 16.03125 C 26.285156 15.457031 28.363281 16.597656 28.941406 18.578125 C 29.515625 20.5625 28.375 22.640625 26.390625 23.21875 C 24.40625 23.792969 22.332031 22.652344 21.753906 20.667969 C 21.179688 18.683594 22.320312 16.609375 24.300781 16.03125 Z M 24.300781 16.03125 " fill-opacity="1" fill-rule="evenodd"/><path fill="#e8e8e8" d="M 22.8125 18.84375 C 22.804688 19.019531 22.660156 19.15625 22.480469 19.15625 C 22.300781 19.15625 22.140625 19 22.15625 18.816406 C 22.230469 17.992188 22.878906 17.238281 23.597656 16.875 C 23.761719 16.792969 23.964844 16.875 24.035156 17.042969 C 24.105469 17.207031 24.027344 17.390625 23.871094 17.46875 C 23.402344 17.707031 22.914062 18.320312 22.8125 18.84375 Z M 22.8125 18.84375 " fill-opacity="1" fill-rule="evenodd"/><path fill="#e8e8e8" d="M 24.988281 16.695312 C 24.988281 16.785156 24.957031 16.863281 24.890625 16.929688 C 24.828125 16.992188 24.75 17.027344 24.65625 17.027344 C 24.566406 17.027344 24.488281 16.992188 24.421875 16.929688 C 24.359375 16.863281 24.324219 16.785156 24.324219 16.695312 C 24.324219 16.601562 24.359375 16.523438 24.421875 16.460938 C 24.488281 16.394531 24.566406 16.363281 24.65625 16.363281 C 24.75 16.363281 24.828125 16.394531 24.890625 16.460938 C 24.957031 16.523438 24.988281 16.601562 24.988281 16.695312 Z M 24.988281 16.695312 " fill-opacity="1" fill-rule="nonzero"/><g fill="#fefefe" fill-opacity="1"><g transform="translate(35.341987, 22.616811)"><g><path d="M 2.195312 -1.90625 L 2.316406 -1.921875 L 2.394531 -1.921875 C 2.289062 -1.625 2.097656 -1.429688 1.914062 -1.429688 C 1.695312 -1.429688 1.5625 -1.675781 1.5625 -2.082031 C 1.5625 -2.667969 1.753906 -3.398438 2.054688 -3.949219 C 2.273438 -4.34375 2.511719 -4.546875 2.746094 -4.546875 C 2.914062 -4.546875 2.984375 -4.449219 2.984375 -4.203125 C 2.984375 -3.957031 2.984375 -3.957031 3.019531 -3.914062 C 3.070312 -3.84375 3.167969 -3.816406 3.363281 -3.816406 C 3.746094 -3.816406 4.1875 -3.914062 4.34375 -4.027344 C 4.46875 -4.109375 4.511719 -4.230469 4.511719 -4.457031 C 4.511719 -4.667969 4.449219 -4.933594 4.34375 -5.132812 C 4.097656 -5.625 3.605469 -5.898438 2.949219 -5.898438 C 2.230469 -5.898438 1.605469 -5.574219 1.105469 -4.941406 C 0.570312 -4.265625 0.148438 -2.957031 0.148438 -1.992188 C 0.148438 -0.816406 0.832031 0.0078125 1.824219 0.0078125 C 2.816406 0.0078125 3.667969 -0.832031 3.957031 -2.097656 C 4.125 -2.125 4.160156 -2.132812 4.214844 -2.175781 C 4.316406 -2.273438 4.46875 -2.808594 4.46875 -3.082031 C 4.46875 -3.292969 4.292969 -3.351562 3.738281 -3.351562 C 3.1875 -3.351562 2.421875 -3.230469 2.265625 -3.125 C 2.125 -3.027344 1.984375 -2.5 1.984375 -2.097656 C 1.984375 -1.957031 2.019531 -1.90625 2.125 -1.90625 Z M 2.195312 -1.90625 "/></g></g></g><g fill="#fefefe" fill-opacity="1"><g transform="translate(39.230157, 22.616811)"><g><path d="M 2.5625 -1.527344 C 2.90625 -1.703125 3.0625 -1.800781 3.238281 -1.957031 C 3.535156 -2.21875 3.730469 -2.652344 3.730469 -3.054688 C 3.730469 -3.84375 3.046875 -4.371094 2.035156 -4.371094 C 1.5625 -4.371094 0.660156 -4.222656 0.527344 -4.117188 C 0.421875 -4.039062 0.238281 -3.511719 0.238281 -3.28125 C 0.238281 -3.175781 0.289062 -3.125 0.386719 -3.125 C 0.5 -3.125 0.640625 -3.160156 0.832031 -3.222656 C 0.71875 -2.816406 0.703125 -2.738281 0.527344 -2.125 C 0.175781 -0.902344 0.0429688 -0.394531 0.0429688 -0.28125 C 0.0429688 -0.121094 0.429688 0.0078125 0.886719 0.0078125 C 1.042969 0.0078125 1.105469 -0.0078125 1.148438 -0.0625 C 1.167969 -0.078125 1.203125 -0.21875 1.265625 -0.457031 L 1.492188 -1.386719 L 2.203125 -0.078125 C 2.40625 0.296875 2.519531 0.429688 2.625 0.429688 C 2.730469 0.429688 2.941406 0.351562 3.160156 0.238281 C 3.371094 0.121094 3.46875 0.015625 3.46875 -0.078125 C 3.46875 -0.15625 3.46875 -0.15625 3.273438 -0.4375 Z M 1.035156 -3.28125 C 1.429688 -3.386719 1.648438 -3.421875 1.886719 -3.421875 C 2.273438 -3.421875 2.554688 -3.222656 2.554688 -2.949219 C 2.554688 -2.605469 2.148438 -2.289062 1.730469 -2.289062 C 1.859375 -2.632812 1.90625 -2.78125 1.90625 -2.886719 C 1.90625 -3.070312 1.789062 -3.152344 1.378906 -3.222656 C 1.300781 -3.238281 1.21875 -3.257812 1.132812 -3.265625 Z M 1.035156 -3.28125 "/></g></g></g><g fill="#fefefe" fill-opacity="1"><g transform="translate(42.302075, 22.616811)"><g><path d="M 1.273438 -1.070312 L 1.597656 -1.070312 C 1.753906 -1.070312 1.859375 -1.210938 2 -1.605469 L 1.941406 -0.554688 L 1.941406 -0.457031 C 1.941406 -0.105469 2.0625 -0.015625 2.546875 -0.015625 C 2.957031 -0.015625 3.0625 -0.105469 3.070312 -0.449219 C 3.070312 -0.507812 3.070312 -0.632812 3.082031 -0.816406 L 3.089844 -1.941406 C 3.089844 -2.675781 3.082031 -2.964844 3.019531 -3.738281 C 3 -3.992188 2.964844 -4.132812 2.886719 -4.195312 C 2.800781 -4.265625 2.265625 -4.378906 2 -4.378906 C 1.851562 -4.378906 1.773438 -4.335938 1.667969 -4.1875 C 1.554688 -4.039062 1.097656 -3.230469 0.914062 -2.859375 C 0.796875 -2.660156 0.695312 -2.449219 0.589844 -2.238281 C 0.578125 -2.210938 0.5625 -2.175781 0.542969 -2.160156 C 0.507812 -2.148438 0.492188 -2.148438 0.484375 -2.160156 L 0.367188 -2.160156 C 0.203125 -2.160156 0.121094 -2.113281 0.0429688 -1.984375 C -0.0507812 -1.816406 -0.15625 -1.394531 -0.15625 -1.203125 C -0.15625 -1.105469 -0.121094 -1.070312 0 -1.054688 L -0.121094 -0.796875 C -0.21875 -0.570312 -0.246094 -0.5 -0.246094 -0.4375 C -0.246094 -0.359375 -0.203125 -0.289062 -0.121094 -0.238281 C 0.0625 -0.121094 0.386719 -0.0273438 0.570312 -0.0273438 C 0.726562 -0.0273438 0.78125 -0.078125 0.921875 -0.359375 Z M 2.027344 -2.140625 L 1.632812 -2.148438 C 1.683594 -2.289062 1.703125 -2.335938 1.835938 -2.632812 C 1.886719 -2.757812 1.941406 -2.871094 1.976562 -2.957031 C 2.011719 -3.046875 2.046875 -3.132812 2.089844 -3.222656 L 2.148438 -3.371094 C 2.140625 -3.292969 2.140625 -3.230469 2.132812 -3.210938 L 2.125 -3.105469 C 2.089844 -2.824219 2.089844 -2.78125 2.070312 -2.597656 L 2.035156 -2.265625 Z M 2.027344 -2.140625 "/></g></g></g><g fill="#fefefe" fill-opacity="1"><g transform="translate(45.216008, 22.616811)"><g><path d="M 1.660156 -2.019531 C 1.695312 -1.914062 1.710938 -1.84375 1.71875 -1.800781 C 1.800781 -1.308594 1.824219 -1.273438 2.0625 -1.273438 C 2.640625 -1.273438 3.386719 -1.835938 3.597656 -2.441406 C 3.652344 -2.589844 3.730469 -3 3.730469 -3.132812 C 3.730469 -3.476562 3.503906 -3.851562 3.160156 -4.082031 C 2.859375 -4.265625 2.476562 -4.371094 2.035156 -4.371094 C 1.5625 -4.371094 0.660156 -4.222656 0.527344 -4.117188 C 0.421875 -4.039062 0.238281 -3.511719 0.238281 -3.28125 C 0.238281 -3.175781 0.289062 -3.125 0.386719 -3.125 C 0.5 -3.125 0.640625 -3.160156 0.832031 -3.222656 C 0.71875 -2.816406 0.703125 -2.738281 0.527344 -2.125 C 0.175781 -0.902344 0.0429688 -0.394531 0.0429688 -0.28125 C 0.0429688 -0.121094 0.429688 0.0078125 0.886719 0.0078125 C 1.125 0.0078125 1.167969 -0.0273438 1.210938 -0.238281 C 1.21875 -0.273438 1.238281 -0.359375 1.265625 -0.457031 C 1.359375 -0.808594 1.421875 -1.035156 1.4375 -1.132812 C 1.507812 -1.40625 1.578125 -1.683594 1.640625 -1.964844 Z M 1.035156 -3.28125 C 1.429688 -3.386719 1.648438 -3.421875 1.886719 -3.421875 C 2.273438 -3.421875 2.554688 -3.222656 2.554688 -2.949219 C 2.554688 -2.617188 2.167969 -2.246094 1.789062 -2.238281 L 1.710938 -2.238281 C 1.851562 -2.605469 1.90625 -2.773438 1.90625 -2.886719 C 1.90625 -3.070312 1.789062 -3.152344 1.378906 -3.222656 C 1.300781 -3.238281 1.21875 -3.257812 1.132812 -3.265625 Z M 1.035156 -3.28125 "/></g></g></g><g fill="#fefefe" fill-opacity="1"><g transform="translate(48.287926, 22.616811)"><g><path d="M 2.582031 -2.660156 L 1.800781 -2.675781 L 1.824219 -2.78125 L 1.976562 -3.265625 L 2.082031 -3.605469 C 2.183594 -3.921875 2.183594 -3.921875 2.183594 -3.992188 C 2.183594 -4.117188 2.113281 -4.203125 1.984375 -4.257812 C 1.824219 -4.316406 1.554688 -4.378906 1.414062 -4.378906 C 1.253906 -4.378906 1.148438 -4.308594 1.078125 -4.179688 C 1.027344 -4.0625 0.796875 -3.351562 0.683594 -2.929688 L 0.632812 -2.738281 L 0.613281 -2.675781 C 0.589844 -2.6875 0.5625 -2.6875 0.554688 -2.6875 C 0.414062 -2.6875 0.324219 -2.652344 0.273438 -2.570312 C 0.183594 -2.449219 0.0429688 -1.976562 0.0429688 -1.808594 C 0.0429688 -1.660156 0.105469 -1.597656 0.308594 -1.554688 L 0.289062 -1.472656 L 0.183594 -1.070312 C 0.0351562 -0.519531 0.015625 -0.421875 0.015625 -0.34375 C 0.015625 -0.253906 0.0625 -0.210938 0.226562 -0.148438 C 0.386719 -0.0859375 0.640625 -0.0429688 0.824219 -0.0429688 C 1.078125 -0.0429688 1.132812 -0.113281 1.246094 -0.597656 C 1.28125 -0.753906 1.316406 -0.886719 1.34375 -1 C 1.449219 -1.414062 1.449219 -1.429688 1.472656 -1.554688 L 1.710938 -1.554688 C 2.019531 -1.542969 2.082031 -1.578125 2.335938 -1.964844 L 2.449219 -2.148438 C 2.457031 -2.160156 2.476562 -2.195312 2.511719 -2.246094 C 2.457031 -2.070312 2.441406 -2.027344 2.394531 -1.878906 C 2.105469 -0.902344 1.964844 -0.421875 1.964844 -0.332031 C 1.964844 -0.148438 2.230469 -0.0507812 2.730469 -0.0507812 C 3.027344 -0.0507812 3.0625 -0.078125 3.160156 -0.386719 C 3.433594 -1.28125 4.097656 -3.84375 4.097656 -4.003906 C 4.097656 -4.097656 4.039062 -4.1875 3.914062 -4.230469 C 3.765625 -4.300781 3.363281 -4.378906 3.203125 -4.378906 C 3.027344 -4.378906 3.027344 -4.378906 2.851562 -3.695312 L 2.710938 -3.160156 C 2.675781 -3.027344 2.640625 -2.886719 2.605469 -2.746094 Z M 2.582031 -2.660156 "/></g></g></g><g fill="#fefefe" fill-opacity="1"><g transform="translate(51.658258, 22.616811)"><g><path d="M 1.308594 -4.386719 C 1.183594 -4.386719 1.125 -4.378906 1.070312 -4.335938 C 1 -4.28125 1 -4.28125 0.746094 -3.519531 C 0.394531 -2.441406 -0.078125 -0.683594 -0.078125 -0.457031 C -0.078125 -0.34375 -0.0273438 -0.273438 0.113281 -0.203125 C 0.261719 -0.121094 0.578125 -0.0507812 0.78125 -0.0507812 C 1.089844 -0.0507812 1.148438 -0.0859375 1.210938 -0.34375 C 1.230469 -0.386719 1.238281 -0.4375 1.253906 -0.492188 C 1.34375 -0.84375 1.421875 -1.175781 1.5 -1.5 C 1.605469 -1.90625 2.027344 -3.433594 2.082031 -3.597656 C 2.175781 -3.886719 2.203125 -3.992188 2.203125 -4.046875 C 2.203125 -4.257812 1.859375 -4.386719 1.308594 -4.386719 Z M 1.308594 -4.386719 "/></g></g></g><g fill="#fefefe" fill-opacity="1"><g transform="translate(53.088895, 22.616811)"><g><path d="M 3.335938 -3.800781 C 3.449219 -3.992188 3.484375 -4.0625 3.484375 -4.125 C 3.484375 -4.257812 3.035156 -4.386719 2.597656 -4.386719 C 2.441406 -4.386719 2.378906 -4.351562 2.300781 -4.222656 C 2.140625 -3.957031 1.964844 -3.617188 1.78125 -3.152344 C 1.765625 -3.222656 1.746094 -3.273438 1.738281 -3.300781 L 1.660156 -3.617188 C 1.5 -4.203125 1.5 -4.203125 1.4375 -4.238281 C 1.316406 -4.316406 0.964844 -4.398438 0.71875 -4.398438 C 0.394531 -4.398438 0.273438 -4.335938 0.273438 -4.167969 C 0.273438 -4.082031 0.308594 -3.96875 0.429688 -3.660156 C 0.464844 -3.570312 0.535156 -3.386719 0.632812 -3.125 C 0.773438 -2.738281 0.859375 -2.511719 0.984375 -2.238281 L -0.0351562 -0.660156 C -0.191406 -0.402344 -0.210938 -0.378906 -0.210938 -0.324219 C -0.210938 -0.191406 0.246094 -0.0351562 0.632812 -0.0351562 C 1.007812 -0.0351562 1.140625 -0.210938 1.535156 -1.21875 C 1.703125 -0.632812 1.753906 -0.464844 1.84375 -0.308594 C 1.957031 -0.105469 2.140625 -0.015625 2.449219 -0.015625 C 2.851562 -0.015625 3.070312 -0.113281 3.070312 -0.28125 C 3.070312 -0.332031 3.046875 -0.421875 2.984375 -0.542969 C 2.710938 -1.113281 2.527344 -1.535156 2.300781 -2.132812 Z M 3.335938 -3.800781 "/></g></g></g><g fill="#fefefe" fill-opacity="1"><g transform="translate(55.694057, 22.616811)"><g/></g></g><g fill="#f2c744" fill-opacity="1"><g transform="translate(38.578711, 23.944946)"><g><path d="M 0.53125 0.015625 C 0.394531 0.015625 0.289062 -0.015625 0.21875 -0.078125 C 0.15625 -0.148438 0.125 -0.25 0.125 -0.375 L 0.125 -1 L 0.3125 -1 L 0.3125 -0.375 C 0.3125 -0.300781 0.328125 -0.242188 0.359375 -0.203125 C 0.398438 -0.171875 0.457031 -0.15625 0.53125 -0.15625 C 0.664062 -0.15625 0.734375 -0.226562 0.734375 -0.375 L 0.734375 -1 L 0.921875 -1 L 0.921875 -0.375 C 0.921875 -0.25 0.890625 -0.148438 0.828125 -0.078125 C 0.765625 -0.015625 0.664062 0.015625 0.53125 0.015625 Z M 0.53125 0.015625 "/></g></g></g><g fill="#f2c744" fill-opacity="1"><g transform="translate(39.632691, 23.944946)"><g><path d="M 0.109375 0 L 0.109375 -0.75 L 0.28125 -0.75 L 0.28125 -0.640625 L 0.296875 -0.640625 C 0.347656 -0.722656 0.425781 -0.765625 0.53125 -0.765625 C 0.613281 -0.765625 0.675781 -0.738281 0.71875 -0.6875 C 0.757812 -0.644531 0.78125 -0.578125 0.78125 -0.484375 L 0.78125 0 L 0.59375 0 L 0.59375 -0.46875 C 0.59375 -0.507812 0.582031 -0.539062 0.5625 -0.5625 C 0.539062 -0.59375 0.507812 -0.609375 0.46875 -0.609375 C 0.414062 -0.609375 0.375 -0.585938 0.34375 -0.546875 C 0.3125 -0.515625 0.296875 -0.460938 0.296875 -0.390625 L 0.296875 0 Z M 0.109375 0 "/></g></g></g><g fill="#f2c744" fill-opacity="1"><g transform="translate(40.511234, 23.944946)"><g><path d="M 0.3125 0.015625 C 0.238281 0.015625 0.1875 0 0.15625 -0.03125 C 0.125 -0.0703125 0.109375 -0.128906 0.109375 -0.203125 L 0.109375 -1.046875 L 0.296875 -1.046875 L 0.296875 -0.21875 C 0.296875 -0.164062 0.3125 -0.140625 0.34375 -0.140625 C 0.351562 -0.140625 0.367188 -0.144531 0.390625 -0.15625 L 0.390625 -0.140625 L 0.40625 0 C 0.394531 0 0.378906 0 0.359375 0 C 0.347656 0.0078125 0.332031 0.015625 0.3125 0.015625 Z M 0.3125 0.015625 "/></g></g></g><g fill="#f2c744" fill-opacity="1"><g transform="translate(40.942345, 23.944946)"><g><path d="M 0.734375 -0.328125 L 0.265625 -0.328125 C 0.265625 -0.265625 0.28125 -0.21875 0.3125 -0.1875 C 0.34375 -0.15625 0.382812 -0.140625 0.4375 -0.140625 C 0.488281 -0.140625 0.523438 -0.144531 0.546875 -0.15625 C 0.578125 -0.175781 0.597656 -0.207031 0.609375 -0.25 L 0.625 -0.25 L 0.75 -0.15625 C 0.726562 -0.101562 0.691406 -0.0625 0.640625 -0.03125 C 0.585938 0 0.519531 0.015625 0.4375 0.015625 C 0.363281 0.015625 0.296875 0 0.234375 -0.03125 C 0.179688 -0.0625 0.140625 -0.101562 0.109375 -0.15625 C 0.078125 -0.21875 0.0625 -0.289062 0.0625 -0.375 C 0.0625 -0.457031 0.078125 -0.523438 0.109375 -0.578125 C 0.140625 -0.640625 0.179688 -0.6875 0.234375 -0.71875 C 0.296875 -0.75 0.363281 -0.765625 0.4375 -0.765625 C 0.539062 -0.765625 0.617188 -0.734375 0.671875 -0.671875 C 0.734375 -0.617188 0.765625 -0.539062 0.765625 -0.4375 C 0.765625 -0.394531 0.757812 -0.363281 0.75 -0.34375 Z M 0.578125 -0.453125 C 0.578125 -0.515625 0.5625 -0.554688 0.53125 -0.578125 C 0.507812 -0.609375 0.476562 -0.625 0.4375 -0.625 C 0.332031 -0.625 0.273438 -0.566406 0.265625 -0.453125 Z M 0.578125 -0.453125 "/></g></g></g><g fill="#f2c744" fill-opacity="1"><g transform="translate(41.757651, 23.944946)"><g><path d="M 0.296875 0.015625 C 0.242188 0.015625 0.195312 0.0078125 0.15625 0 C 0.125 -0.0195312 0.0976562 -0.046875 0.078125 -0.078125 C 0.0664062 -0.117188 0.0625 -0.164062 0.0625 -0.21875 C 0.0625 -0.257812 0.0664062 -0.296875 0.078125 -0.328125 C 0.0976562 -0.359375 0.128906 -0.378906 0.171875 -0.390625 C 0.210938 -0.410156 0.265625 -0.425781 0.328125 -0.4375 C 0.367188 -0.445312 0.398438 -0.457031 0.421875 -0.46875 C 0.453125 -0.476562 0.46875 -0.488281 0.46875 -0.5 C 0.476562 -0.507812 0.484375 -0.519531 0.484375 -0.53125 C 0.484375 -0.5625 0.472656 -0.582031 0.453125 -0.59375 C 0.441406 -0.601562 0.421875 -0.609375 0.390625 -0.609375 C 0.347656 -0.609375 0.304688 -0.597656 0.265625 -0.578125 C 0.222656 -0.566406 0.191406 -0.546875 0.171875 -0.515625 L 0.15625 -0.515625 L 0.078125 -0.625 C 0.109375 -0.664062 0.148438 -0.695312 0.203125 -0.71875 C 0.265625 -0.75 0.328125 -0.765625 0.390625 -0.765625 C 0.492188 -0.765625 0.566406 -0.742188 0.609375 -0.703125 C 0.648438 -0.660156 0.671875 -0.597656 0.671875 -0.515625 L 0.671875 -0.203125 C 0.671875 -0.160156 0.6875 -0.140625 0.71875 -0.140625 C 0.726562 -0.140625 0.738281 -0.144531 0.75 -0.15625 L 0.765625 -0.15625 L 0.78125 -0.015625 C 0.769531 -0.00390625 0.753906 0 0.734375 0 C 0.710938 0 0.691406 0 0.671875 0 C 0.628906 0 0.59375 -0.00390625 0.5625 -0.015625 C 0.539062 -0.0351562 0.523438 -0.0625 0.515625 -0.09375 L 0.5 -0.109375 C 0.457031 -0.0234375 0.390625 0.015625 0.296875 0.015625 Z M 0.359375 -0.125 C 0.398438 -0.125 0.429688 -0.140625 0.453125 -0.171875 C 0.484375 -0.203125 0.5 -0.242188 0.5 -0.296875 L 0.5 -0.375 L 0.484375 -0.375 C 0.472656 -0.363281 0.457031 -0.351562 0.4375 -0.34375 C 0.414062 -0.34375 0.390625 -0.335938 0.359375 -0.328125 C 0.316406 -0.316406 0.285156 -0.300781 0.265625 -0.28125 C 0.253906 -0.269531 0.25 -0.25 0.25 -0.21875 C 0.25 -0.1875 0.253906 -0.160156 0.265625 -0.140625 C 0.285156 -0.128906 0.316406 -0.125 0.359375 -0.125 Z M 0.359375 -0.125 "/></g></g></g><g fill="#f2c744" fill-opacity="1"><g transform="translate(42.548476, 23.944946)"><g><path d="M 0.34375 0.015625 C 0.300781 0.015625 0.253906 0.0078125 0.203125 0 C 0.160156 -0.0078125 0.125 -0.0234375 0.09375 -0.046875 C 0.0703125 -0.0664062 0.0507812 -0.09375 0.03125 -0.125 L 0.140625 -0.234375 L 0.15625 -0.234375 C 0.175781 -0.203125 0.203125 -0.175781 0.234375 -0.15625 C 0.273438 -0.144531 0.316406 -0.140625 0.359375 -0.140625 C 0.390625 -0.140625 0.414062 -0.144531 0.4375 -0.15625 C 0.457031 -0.164062 0.46875 -0.1875 0.46875 -0.21875 C 0.46875 -0.238281 0.457031 -0.253906 0.4375 -0.265625 C 0.425781 -0.273438 0.40625 -0.285156 0.375 -0.296875 L 0.28125 -0.3125 C 0.207031 -0.332031 0.148438 -0.359375 0.109375 -0.390625 C 0.078125 -0.429688 0.0625 -0.476562 0.0625 -0.53125 C 0.0625 -0.582031 0.0703125 -0.625 0.09375 -0.65625 C 0.125 -0.6875 0.160156 -0.710938 0.203125 -0.734375 C 0.242188 -0.753906 0.296875 -0.765625 0.359375 -0.765625 C 0.421875 -0.765625 0.472656 -0.753906 0.515625 -0.734375 C 0.566406 -0.710938 0.601562 -0.6875 0.625 -0.65625 L 0.515625 -0.546875 C 0.492188 -0.566406 0.46875 -0.582031 0.4375 -0.59375 C 0.414062 -0.601562 0.390625 -0.609375 0.359375 -0.609375 C 0.273438 -0.609375 0.234375 -0.585938 0.234375 -0.546875 C 0.234375 -0.523438 0.238281 -0.507812 0.25 -0.5 C 0.269531 -0.488281 0.296875 -0.476562 0.328125 -0.46875 L 0.421875 -0.453125 C 0.503906 -0.429688 0.5625 -0.398438 0.59375 -0.359375 C 0.625 -0.328125 0.640625 -0.28125 0.640625 -0.21875 C 0.640625 -0.175781 0.628906 -0.132812 0.609375 -0.09375 C 0.585938 -0.0625 0.550781 -0.0351562 0.5 -0.015625 C 0.457031 0.00390625 0.40625 0.015625 0.34375 0.015625 Z M 0.34375 0.015625 "/></g></g></g><g fill="#f2c744" fill-opacity="1"><g transform="translate(43.240024, 23.944946)"><g><path d="M 0.109375 0 L 0.109375 -1.046875 L 0.296875 -1.046875 L 0.296875 -0.65625 L 0.3125 -0.65625 C 0.332031 -0.6875 0.359375 -0.710938 0.390625 -0.734375 C 0.429688 -0.753906 0.476562 -0.765625 0.53125 -0.765625 C 0.695312 -0.765625 0.78125 -0.671875 0.78125 -0.484375 L 0.78125 0 L 0.59375 0 L 0.59375 -0.453125 C 0.59375 -0.503906 0.582031 -0.539062 0.5625 -0.5625 C 0.539062 -0.59375 0.507812 -0.609375 0.46875 -0.609375 C 0.414062 -0.609375 0.375 -0.585938 0.34375 -0.546875 C 0.3125 -0.515625 0.296875 -0.460938 0.296875 -0.390625 L 0.296875 0 Z M 0.109375 0 "/></g></g></g><g fill="#f2c744" fill-opacity="1"><g transform="translate(44.118567, 23.944946)"><g><path d="M 0.203125 -0.84375 C 0.171875 -0.84375 0.144531 -0.851562 0.125 -0.875 C 0.101562 -0.894531 0.09375 -0.921875 0.09375 -0.953125 C 0.09375 -0.984375 0.101562 -1.007812 0.125 -1.03125 C 0.144531 -1.050781 0.171875 -1.0625 0.203125 -1.0625 C 0.222656 -1.0625 0.238281 -1.054688 0.25 -1.046875 C 0.269531 -1.035156 0.285156 -1.019531 0.296875 -1 C 0.304688 -0.988281 0.3125 -0.972656 0.3125 -0.953125 C 0.3125 -0.929688 0.304688 -0.910156 0.296875 -0.890625 C 0.285156 -0.867188 0.269531 -0.851562 0.25 -0.84375 C 0.238281 -0.84375 0.222656 -0.84375 0.203125 -0.84375 Z M 0.109375 0 L 0.109375 -0.75 L 0.296875 -0.75 L 0.296875 0 Z M 0.109375 0 "/></g></g></g><g fill="#f2c744" fill-opacity="1"><g transform="translate(44.522479, 23.944946)"><g><path d="M 0.109375 0 L 0.109375 -0.75 L 0.28125 -0.75 L 0.28125 -0.640625 L 0.296875 -0.640625 C 0.347656 -0.722656 0.425781 -0.765625 0.53125 -0.765625 C 0.613281 -0.765625 0.675781 -0.738281 0.71875 -0.6875 C 0.757812 -0.644531 0.78125 -0.578125 0.78125 -0.484375 L 0.78125 0 L 0.59375 0 L 0.59375 -0.46875 C 0.59375 -0.507812 0.582031 -0.539062 0.5625 -0.5625 C 0.539062 -0.59375 0.507812 -0.609375 0.46875 -0.609375 C 0.414062 -0.609375 0.375 -0.585938 0.34375 -0.546875 C 0.3125 -0.515625 0.296875 -0.460938 0.296875 -0.390625 L 0.296875 0 Z M 0.109375 0 "/></g></g></g><g fill="#f2c744" fill-opacity="1"><g transform="translate(45.401022, 23.944946)"><g><path d="M 0.390625 0.3125 C 0.265625 0.3125 0.171875 0.289062 0.109375 0.25 C 0.0546875 0.21875 0.03125 0.171875 0.03125 0.109375 C 0.03125 0.0664062 0.0390625 0.0351562 0.0625 0.015625 C 0.09375 -0.00390625 0.128906 -0.0195312 0.171875 -0.03125 L 0.171875 -0.046875 C 0.148438 -0.0664062 0.128906 -0.0820312 0.109375 -0.09375 C 0.0976562 -0.113281 0.09375 -0.140625 0.09375 -0.171875 C 0.09375 -0.222656 0.132812 -0.257812 0.21875 -0.28125 L 0.21875 -0.296875 C 0.175781 -0.328125 0.144531 -0.359375 0.125 -0.390625 C 0.101562 -0.421875 0.09375 -0.460938 0.09375 -0.515625 C 0.09375 -0.566406 0.101562 -0.609375 0.125 -0.640625 C 0.15625 -0.679688 0.191406 -0.710938 0.234375 -0.734375 C 0.273438 -0.753906 0.328125 -0.765625 0.390625 -0.765625 C 0.453125 -0.765625 0.503906 -0.753906 0.546875 -0.734375 C 0.566406 -0.765625 0.578125 -0.800781 0.578125 -0.84375 L 0.59375 -0.859375 L 0.734375 -0.828125 C 0.722656 -0.785156 0.707031 -0.753906 0.6875 -0.734375 C 0.675781 -0.710938 0.65625 -0.691406 0.625 -0.671875 L 0.625 -0.65625 C 0.664062 -0.613281 0.6875 -0.5625 0.6875 -0.5 C 0.6875 -0.445312 0.671875 -0.398438 0.640625 -0.359375 C 0.617188 -0.328125 0.585938 -0.300781 0.546875 -0.28125 C 0.503906 -0.257812 0.453125 -0.25 0.390625 -0.25 L 0.359375 -0.25 C 0.335938 -0.25 0.328125 -0.25 0.328125 -0.25 C 0.304688 -0.25 0.289062 -0.242188 0.28125 -0.234375 C 0.269531 -0.234375 0.265625 -0.222656 0.265625 -0.203125 C 0.265625 -0.191406 0.269531 -0.179688 0.28125 -0.171875 C 0.300781 -0.160156 0.320312 -0.15625 0.34375 -0.15625 L 0.515625 -0.15625 C 0.679688 -0.144531 0.765625 -0.0703125 0.765625 0.0625 C 0.765625 0.113281 0.75 0.15625 0.71875 0.1875 C 0.695312 0.226562 0.65625 0.257812 0.59375 0.28125 C 0.539062 0.300781 0.472656 0.3125 0.390625 0.3125 Z M 0.390625 -0.390625 C 0.421875 -0.390625 0.445312 -0.398438 0.46875 -0.421875 C 0.488281 -0.441406 0.5 -0.472656 0.5 -0.515625 C 0.5 -0.546875 0.488281 -0.570312 0.46875 -0.59375 C 0.445312 -0.613281 0.421875 -0.625 0.390625 -0.625 C 0.347656 -0.625 0.316406 -0.613281 0.296875 -0.59375 C 0.285156 -0.570312 0.28125 -0.546875 0.28125 -0.515625 C 0.28125 -0.472656 0.285156 -0.441406 0.296875 -0.421875 C 0.316406 -0.398438 0.347656 -0.390625 0.390625 -0.390625 Z M 0.390625 0.1875 C 0.453125 0.1875 0.5 0.175781 0.53125 0.15625 C 0.5625 0.132812 0.578125 0.109375 0.578125 0.078125 C 0.578125 0.0546875 0.566406 0.0390625 0.546875 0.03125 C 0.535156 0.0195312 0.515625 0.015625 0.484375 0.015625 L 0.328125 0 C 0.328125 0 0.320312 0 0.3125 0 C 0.3125 0 0.304688 0 0.296875 0 C 0.265625 0 0.238281 0.00390625 0.21875 0.015625 C 0.207031 0.0351562 0.203125 0.0546875 0.203125 0.078125 C 0.203125 0.109375 0.21875 0.132812 0.25 0.15625 C 0.28125 0.175781 0.328125 0.1875 0.390625 0.1875 Z M 0.390625 0.1875 "/></g></g></g><g fill="#f2c744" fill-opacity="1"><g transform="translate(46.180968, 23.944946)"><g/></g></g><g fill="#f2c744" fill-opacity="1"><g transform="translate(46.509402, 23.944946)"><g><path d="M 0.515625 0 L 0.296875 0 L 0.015625 -0.75 L 0.21875 -0.75 L 0.390625 -0.21875 L 0.40625 -0.21875 L 0.59375 -0.75 L 0.796875 -0.75 Z M 0.515625 0 "/></g></g></g><g fill="#f2c744" fill-opacity="1"><g transform="translate(47.315867, 23.944946)"><g><path d="M 0.203125 -0.84375 C 0.171875 -0.84375 0.144531 -0.851562 0.125 -0.875 C 0.101562 -0.894531 0.09375 -0.921875 0.09375 -0.953125 C 0.09375 -0.984375 0.101562 -1.007812 0.125 -1.03125 C 0.144531 -1.050781 0.171875 -1.0625 0.203125 -1.0625 C 0.222656 -1.0625 0.238281 -1.054688 0.25 -1.046875 C 0.269531 -1.035156 0.285156 -1.019531 0.296875 -1 C 0.304688 -0.988281 0.3125 -0.972656 0.3125 -0.953125 C 0.3125 -0.929688 0.304688 -0.910156 0.296875 -0.890625 C 0.285156 -0.867188 0.269531 -0.851562 0.25 -0.84375 C 0.238281 -0.84375 0.222656 -0.84375 0.203125 -0.84375 Z M 0.109375 0 L 0.109375 -0.75 L 0.296875 -0.75 L 0.296875 0 Z M 0.109375 0 "/></g></g></g><g fill="#f2c744" fill-opacity="1"><g transform="translate(47.719779, 23.944946)"><g><path d="M 0.34375 0.015625 C 0.300781 0.015625 0.253906 0.0078125 0.203125 0 C 0.160156 -0.0078125 0.125 -0.0234375 0.09375 -0.046875 C 0.0703125 -0.0664062 0.0507812 -0.09375 0.03125 -0.125 L 0.140625 -0.234375 L 0.15625 -0.234375 C 0.175781 -0.203125 0.203125 -0.175781 0.234375 -0.15625 C 0.273438 -0.144531 0.316406 -0.140625 0.359375 -0.140625 C 0.390625 -0.140625 0.414062 -0.144531 0.4375 -0.15625 C 0.457031 -0.164062 0.46875 -0.1875 0.46875 -0.21875 C 0.46875 -0.238281 0.457031 -0.253906 0.4375 -0.265625 C 0.425781 -0.273438 0.40625 -0.285156 0.375 -0.296875 L 0.28125 -0.3125 C 0.207031 -0.332031 0.148438 -0.359375 0.109375 -0.390625 C 0.078125 -0.429688 0.0625 -0.476562 0.0625 -0.53125 C 0.0625 -0.582031 0.0703125 -0.625 0.09375 -0.65625 C 0.125 -0.6875 0.160156 -0.710938 0.203125 -0.734375 C 0.242188 -0.753906 0.296875 -0.765625 0.359375 -0.765625 C 0.421875 -0.765625 0.472656 -0.753906 0.515625 -0.734375 C 0.566406 -0.710938 0.601562 -0.6875 0.625 -0.65625 L 0.515625 -0.546875 C 0.492188 -0.566406 0.46875 -0.582031 0.4375 -0.59375 C 0.414062 -0.601562 0.390625 -0.609375 0.359375 -0.609375 C 0.273438 -0.609375 0.234375 -0.585938 0.234375 -0.546875 C 0.234375 -0.523438 0.238281 -0.507812 0.25 -0.5 C 0.269531 -0.488281 0.296875 -0.476562 0.328125 -0.46875 L 0.421875 -0.453125 C 0.503906 -0.429688 0.5625 -0.398438 0.59375 -0.359375 C 0.625 -0.328125 0.640625 -0.28125 0.640625 -0.21875 C 0.640625 -0.175781 0.628906 -0.132812 0.609375 -0.09375 C 0.585938 -0.0625 0.550781 -0.0351562 0.5 -0.015625 C 0.457031 0.00390625 0.40625 0.015625 0.34375 0.015625 Z M 0.34375 0.015625 "/></g></g></g><g fill="#f2c744" fill-opacity="1"><g transform="translate(48.411326, 23.944946)"><g><path d="M 0.34375 0.015625 C 0.257812 0.015625 0.195312 -0.00390625 0.15625 -0.046875 C 0.113281 -0.0976562 0.09375 -0.164062 0.09375 -0.25 L 0.09375 -0.75 L 0.28125 -0.75 L 0.28125 -0.28125 C 0.28125 -0.226562 0.289062 -0.191406 0.3125 -0.171875 C 0.332031 -0.148438 0.363281 -0.140625 0.40625 -0.140625 C 0.457031 -0.140625 0.5 -0.15625 0.53125 -0.1875 C 0.5625 -0.226562 0.578125 -0.285156 0.578125 -0.359375 L 0.578125 -0.75 L 0.765625 -0.75 L 0.765625 0 L 0.578125 0 L 0.578125 -0.109375 L 0.5625 -0.109375 C 0.539062 -0.0664062 0.507812 -0.0351562 0.46875 -0.015625 C 0.4375 0.00390625 0.394531 0.015625 0.34375 0.015625 Z M 0.34375 0.015625 "/></g></g></g><g fill="#f2c744" fill-opacity="1"><g transform="translate(49.27899, 23.944946)"><g><path d="M 0.296875 0.015625 C 0.242188 0.015625 0.195312 0.0078125 0.15625 0 C 0.125 -0.0195312 0.0976562 -0.046875 0.078125 -0.078125 C 0.0664062 -0.117188 0.0625 -0.164062 0.0625 -0.21875 C 0.0625 -0.257812 0.0664062 -0.296875 0.078125 -0.328125 C 0.0976562 -0.359375 0.128906 -0.378906 0.171875 -0.390625 C 0.210938 -0.410156 0.265625 -0.425781 0.328125 -0.4375 C 0.367188 -0.445312 0.398438 -0.457031 0.421875 -0.46875 C 0.453125 -0.476562 0.46875 -0.488281 0.46875 -0.5 C 0.476562 -0.507812 0.484375 -0.519531 0.484375 -0.53125 C 0.484375 -0.5625 0.472656 -0.582031 0.453125 -0.59375 C 0.441406 -0.601562 0.421875 -0.609375 0.390625 -0.609375 C 0.347656 -0.609375 0.304688 -0.597656 0.265625 -0.578125 C 0.222656 -0.566406 0.191406 -0.546875 0.171875 -0.515625 L 0.15625 -0.515625 L 0.078125 -0.625 C 0.109375 -0.664062 0.148438 -0.695312 0.203125 -0.71875 C 0.265625 -0.75 0.328125 -0.765625 0.390625 -0.765625 C 0.492188 -0.765625 0.566406 -0.742188 0.609375 -0.703125 C 0.648438 -0.660156 0.671875 -0.597656 0.671875 -0.515625 L 0.671875 -0.203125 C 0.671875 -0.160156 0.6875 -0.140625 0.71875 -0.140625 C 0.726562 -0.140625 0.738281 -0.144531 0.75 -0.15625 L 0.765625 -0.15625 L 0.78125 -0.015625 C 0.769531 -0.00390625 0.753906 0 0.734375 0 C 0.710938 0 0.691406 0 0.671875 0 C 0.628906 0 0.59375 -0.00390625 0.5625 -0.015625 C 0.539062 -0.0351562 0.523438 -0.0625 0.515625 -0.09375 L 0.5 -0.109375 C 0.457031 -0.0234375 0.390625 0.015625 0.296875 0.015625 Z M 0.359375 -0.125 C 0.398438 -0.125 0.429688 -0.140625 0.453125 -0.171875 C 0.484375 -0.203125 0.5 -0.242188 0.5 -0.296875 L 0.5 -0.375 L 0.484375 -0.375 C 0.472656 -0.363281 0.457031 -0.351562 0.4375 -0.34375 C 0.414062 -0.34375 0.390625 -0.335938 0.359375 -0.328125 C 0.316406 -0.316406 0.285156 -0.300781 0.265625 -0.28125 C 0.253906 -0.269531 0.25 -0.25 0.25 -0.21875 C 0.25 -0.1875 0.253906 -0.160156 0.265625 -0.140625 C 0.285156 -0.128906 0.316406 -0.125 0.359375 -0.125 Z M 0.359375 -0.125 "/></g></g></g><g fill="#f2c744" fill-opacity="1"><g transform="translate(50.069815, 23.944946)"><g><path d="M 0.3125 0.015625 C 0.238281 0.015625 0.1875 0 0.15625 -0.03125 C 0.125 -0.0703125 0.109375 -0.128906 0.109375 -0.203125 L 0.109375 -1.046875 L 0.296875 -1.046875 L 0.296875 -0.21875 C 0.296875 -0.164062 0.3125 -0.140625 0.34375 -0.140625 C 0.351562 -0.140625 0.367188 -0.144531 0.390625 -0.15625 L 0.390625 -0.140625 L 0.40625 0 C 0.394531 0 0.378906 0 0.359375 0 C 0.347656 0.0078125 0.332031 0.015625 0.3125 0.015625 Z M 0.3125 0.015625 "/></g></g></g><g fill="#f2c744" fill-opacity="1"><g transform="translate(50.500927, 23.944946)"><g/></g></g><g fill="#f2c744" fill-opacity="1"><g transform="translate(50.829361, 23.944946)"><g><path d="M 0.3125 0 L 0.125 0 L 0.125 -1 L 0.390625 -1 L 0.640625 -0.265625 L 0.65625 -0.265625 L 0.90625 -1 L 1.15625 -1 L 1.15625 0 L 0.96875 0 L 0.96875 -0.65625 L 0.953125 -0.65625 L 0.71875 0 L 0.5625 0 L 0.328125 -0.65625 L 0.3125 -0.65625 Z M 0.3125 0 "/></g></g></g><g fill="#f2c744" fill-opacity="1"><g transform="translate(52.112497, 23.944946)"><g><path d="M 0.296875 0.015625 C 0.242188 0.015625 0.195312 0.0078125 0.15625 0 C 0.125 -0.0195312 0.0976562 -0.046875 0.078125 -0.078125 C 0.0664062 -0.117188 0.0625 -0.164062 0.0625 -0.21875 C 0.0625 -0.257812 0.0664062 -0.296875 0.078125 -0.328125 C 0.0976562 -0.359375 0.128906 -0.378906 0.171875 -0.390625 C 0.210938 -0.410156 0.265625 -0.425781 0.328125 -0.4375 C 0.367188 -0.445312 0.398438 -0.457031 0.421875 -0.46875 C 0.453125 -0.476562 0.46875 -0.488281 0.46875 -0.5 C 0.476562 -0.507812 0.484375 -0.519531 0.484375 -0.53125 C 0.484375 -0.5625 0.472656 -0.582031 0.453125 -0.59375 C 0.441406 -0.601562 0.421875 -0.609375 0.390625 -0.609375 C 0.347656 -0.609375 0.304688 -0.597656 0.265625 -0.578125 C 0.222656 -0.566406 0.191406 -0.546875 0.171875 -0.515625 L 0.15625 -0.515625 L 0.078125 -0.625 C 0.109375 -0.664062 0.148438 -0.695312 0.203125 -0.71875 C 0.265625 -0.75 0.328125 -0.765625 0.390625 -0.765625 C 0.492188 -0.765625 0.566406 -0.742188 0.609375 -0.703125 C 0.648438 -0.660156 0.671875 -0.597656 0.671875 -0.515625 L 0.671875 -0.203125 C 0.671875 -0.160156 0.6875 -0.140625 0.71875 -0.140625 C 0.726562 -0.140625 0.738281 -0.144531 0.75 -0.15625 L 0.765625 -0.15625 L 0.78125 -0.015625 C 0.769531 -0.00390625 0.753906 0 0.734375 0 C 0.710938 0 0.691406 0 0.671875 0 C 0.628906 0 0.59375 -0.00390625 0.5625 -0.015625 C 0.539062 -0.0351562 0.523438 -0.0625 0.515625 -0.09375 L 0.5 -0.109375 C 0.457031 -0.0234375 0.390625 0.015625 0.296875 0.015625 Z M 0.359375 -0.125 C 0.398438 -0.125 0.429688 -0.140625 0.453125 -0.171875 C 0.484375 -0.203125 0.5 -0.242188 0.5 -0.296875 L 0.5 -0.375 L 0.484375 -0.375 C 0.472656 -0.363281 0.457031 -0.351562 0.4375 -0.34375 C 0.414062 -0.34375 0.390625 -0.335938 0.359375 -0.328125 C 0.316406 -0.316406 0.285156 -0.300781 0.265625 -0.28125 C 0.253906 -0.269531 0.25 -0.25 0.25 -0.21875 C 0.25 -0.1875 0.253906 -0.160156 0.265625 -0.140625 C 0.285156 -0.128906 0.316406 -0.125 0.359375 -0.125 Z M 0.359375 -0.125 "/></g></g></g><g fill="#f2c744" fill-opacity="1"><g transform="translate(52.903323, 23.944946)"><g><path d="M 0.34375 0.015625 C 0.300781 0.015625 0.253906 0.0078125 0.203125 0 C 0.160156 -0.0078125 0.125 -0.0234375 0.09375 -0.046875 C 0.0703125 -0.0664062 0.0507812 -0.09375 0.03125 -0.125 L 0.140625 -0.234375 L 0.15625 -0.234375 C 0.175781 -0.203125 0.203125 -0.175781 0.234375 -0.15625 C 0.273438 -0.144531 0.316406 -0.140625 0.359375 -0.140625 C 0.390625 -0.140625 0.414062 -0.144531 0.4375 -0.15625 C 0.457031 -0.164062 0.46875 -0.1875 0.46875 -0.21875 C 0.46875 -0.238281 0.457031 -0.253906 0.4375 -0.265625 C 0.425781 -0.273438 0.40625 -0.285156 0.375 -0.296875 L 0.28125 -0.3125 C 0.207031 -0.332031 0.148438 -0.359375 0.109375 -0.390625 C 0.078125 -0.429688 0.0625 -0.476562 0.0625 -0.53125 C 0.0625 -0.582031 0.0703125 -0.625 0.09375 -0.65625 C 0.125 -0.6875 0.160156 -0.710938 0.203125 -0.734375 C 0.242188 -0.753906 0.296875 -0.765625 0.359375 -0.765625 C 0.421875 -0.765625 0.472656 -0.753906 0.515625 -0.734375 C 0.566406 -0.710938 0.601562 -0.6875 0.625 -0.65625 L 0.515625 -0.546875 C 0.492188 -0.566406 0.46875 -0.582031 0.4375 -0.59375 C 0.414062 -0.601562 0.390625 -0.609375 0.359375 -0.609375 C 0.273438 -0.609375 0.234375 -0.585938 0.234375 -0.546875 C 0.234375 -0.523438 0.238281 -0.507812 0.25 -0.5 C 0.269531 -0.488281 0.296875 -0.476562 0.328125 -0.46875 L 0.421875 -0.453125 C 0.503906 -0.429688 0.5625 -0.398438 0.59375 -0.359375 C 0.625 -0.328125 0.640625 -0.28125 0.640625 -0.21875 C 0.640625 -0.175781 0.628906 -0.132812 0.609375 -0.09375 C 0.585938 -0.0625 0.550781 -0.0351562 0.5 -0.015625 C 0.457031 0.00390625 0.40625 0.015625 0.34375 0.015625 Z M 0.34375 0.015625 "/></g></g></g><g fill="#f2c744" fill-opacity="1"><g transform="translate(53.59487, 23.944946)"><g><path d="M 0.515625 -0.171875 L 0.5625 -0.046875 C 0.539062 -0.0234375 0.515625 -0.0078125 0.484375 0 C 0.453125 0.0078125 0.421875 0.015625 0.390625 0.015625 C 0.304688 0.015625 0.242188 -0.00390625 0.203125 -0.046875 C 0.160156 -0.0976562 0.140625 -0.164062 0.140625 -0.25 L 0.140625 -0.59375 L 0.015625 -0.59375 L 0.015625 -0.75 L 0.140625 -0.75 L 0.140625 -0.890625 L 0.328125 -0.921875 L 0.328125 -0.75 L 0.53125 -0.75 L 0.53125 -0.59375 L 0.328125 -0.59375 L 0.328125 -0.265625 C 0.328125 -0.222656 0.332031 -0.191406 0.34375 -0.171875 C 0.363281 -0.160156 0.390625 -0.15625 0.421875 -0.15625 C 0.453125 -0.15625 0.476562 -0.160156 0.5 -0.171875 Z M 0.515625 -0.171875 "/></g></g></g><g fill="#f2c744" fill-opacity="1"><g transform="translate(54.17762, 23.944946)"><g><path d="M 0.734375 -0.328125 L 0.265625 -0.328125 C 0.265625 -0.265625 0.28125 -0.21875 0.3125 -0.1875 C 0.34375 -0.15625 0.382812 -0.140625 0.4375 -0.140625 C 0.488281 -0.140625 0.523438 -0.144531 0.546875 -0.15625 C 0.578125 -0.175781 0.597656 -0.207031 0.609375 -0.25 L 0.625 -0.25 L 0.75 -0.15625 C 0.726562 -0.101562 0.691406 -0.0625 0.640625 -0.03125 C 0.585938 0 0.519531 0.015625 0.4375 0.015625 C 0.363281 0.015625 0.296875 0 0.234375 -0.03125 C 0.179688 -0.0625 0.140625 -0.101562 0.109375 -0.15625 C 0.078125 -0.21875 0.0625 -0.289062 0.0625 -0.375 C 0.0625 -0.457031 0.078125 -0.523438 0.109375 -0.578125 C 0.140625 -0.640625 0.179688 -0.6875 0.234375 -0.71875 C 0.296875 -0.75 0.363281 -0.765625 0.4375 -0.765625 C 0.539062 -0.765625 0.617188 -0.734375 0.671875 -0.671875 C 0.734375 -0.617188 0.765625 -0.539062 0.765625 -0.4375 C 0.765625 -0.394531 0.757812 -0.363281 0.75 -0.34375 Z M 0.578125 -0.453125 C 0.578125 -0.515625 0.5625 -0.554688 0.53125 -0.578125 C 0.507812 -0.609375 0.476562 -0.625 0.4375 -0.625 C 0.332031 -0.625 0.273438 -0.566406 0.265625 -0.453125 Z M 0.578125 -0.453125 "/></g></g></g><g fill="#f2c744" fill-opacity="1"><g transform="translate(54.992925, 23.944946)"><g><path d="M 0.109375 0 L 0.109375 -0.75 L 0.296875 -0.75 L 0.296875 -0.640625 L 0.3125 -0.640625 C 0.320312 -0.679688 0.34375 -0.707031 0.375 -0.71875 C 0.40625 -0.738281 0.441406 -0.75 0.484375 -0.75 C 0.523438 -0.75 0.554688 -0.742188 0.578125 -0.734375 L 0.546875 -0.578125 L 0.53125 -0.5625 C 0.519531 -0.570312 0.507812 -0.578125 0.5 -0.578125 C 0.488281 -0.578125 0.472656 -0.578125 0.453125 -0.578125 C 0.398438 -0.578125 0.359375 -0.554688 0.328125 -0.515625 C 0.304688 -0.484375 0.296875 -0.425781 0.296875 -0.34375 L 0.296875 0 Z M 0.109375 0 "/></g></g></g><g fill="#f2c744" fill-opacity="1"><g transform="translate(55.581115, 23.944946)"><g><path d="M 0.171875 0.3125 C 0.140625 0.3125 0.109375 0.304688 0.078125 0.296875 C 0.0546875 0.296875 0.0351562 0.296875 0.015625 0.296875 L 0.046875 0.140625 L 0.0625 0.140625 C 0.0703125 0.140625 0.0820312 0.140625 0.09375 0.140625 C 0.113281 0.148438 0.132812 0.15625 0.15625 0.15625 C 0.1875 0.15625 0.207031 0.148438 0.21875 0.140625 C 0.238281 0.128906 0.253906 0.113281 0.265625 0.09375 C 0.285156 0.0820312 0.300781 0.0625 0.3125 0.03125 L 0.015625 -0.75 L 0.21875 -0.75 L 0.40625 -0.234375 L 0.421875 -0.234375 L 0.59375 -0.75 L 0.78125 -0.75 L 0.484375 0.046875 C 0.460938 0.109375 0.4375 0.160156 0.40625 0.203125 C 0.375 0.242188 0.335938 0.269531 0.296875 0.28125 C 0.265625 0.300781 0.222656 0.3125 0.171875 0.3125 Z M 0.171875 0.3125 "/></g></g></g><g fill="#f2c744" fill-opacity="1"><g transform="translate(42.578308, 17.578077)"><g><path d="M 0.875 0.03125 C 0.738281 0.03125 0.617188 0.015625 0.515625 -0.015625 C 0.410156 -0.0546875 0.320312 -0.101562 0.25 -0.15625 C 0.175781 -0.207031 0.117188 -0.269531 0.078125 -0.34375 L 0.296875 -0.609375 L 0.328125 -0.609375 C 0.390625 -0.515625 0.46875 -0.441406 0.5625 -0.390625 C 0.65625 -0.335938 0.757812 -0.3125 0.875 -0.3125 C 0.976562 -0.3125 1.054688 -0.332031 1.109375 -0.375 C 1.171875 -0.414062 1.203125 -0.476562 1.203125 -0.5625 C 1.203125 -0.601562 1.191406 -0.640625 1.171875 -0.671875 C 1.148438 -0.703125 1.117188 -0.726562 1.078125 -0.75 C 1.046875 -0.78125 0.992188 -0.800781 0.921875 -0.8125 L 0.671875 -0.875 C 0.492188 -0.914062 0.359375 -0.984375 0.265625 -1.078125 C 0.179688 -1.171875 0.140625 -1.296875 0.140625 -1.453125 C 0.140625 -1.566406 0.164062 -1.664062 0.21875 -1.75 C 0.28125 -1.832031 0.363281 -1.894531 0.46875 -1.9375 C 0.570312 -1.988281 0.703125 -2.015625 0.859375 -2.015625 C 1.003906 -2.015625 1.128906 -1.992188 1.234375 -1.953125 C 1.347656 -1.910156 1.445312 -1.847656 1.53125 -1.765625 L 1.328125 -1.5 L 1.296875 -1.5 C 1.242188 -1.5625 1.179688 -1.601562 1.109375 -1.625 C 1.035156 -1.65625 0.953125 -1.671875 0.859375 -1.671875 C 0.742188 -1.671875 0.660156 -1.648438 0.609375 -1.609375 C 0.554688 -1.578125 0.53125 -1.53125 0.53125 -1.46875 C 0.53125 -1.40625 0.546875 -1.351562 0.578125 -1.3125 C 0.617188 -1.28125 0.6875 -1.253906 0.78125 -1.234375 L 1.046875 -1.171875 C 1.242188 -1.128906 1.382812 -1.054688 1.46875 -0.953125 C 1.550781 -0.859375 1.59375 -0.734375 1.59375 -0.578125 C 1.59375 -0.460938 1.566406 -0.359375 1.515625 -0.265625 C 1.460938 -0.171875 1.378906 -0.0976562 1.265625 -0.046875 C 1.160156 0.00390625 1.03125 0.03125 0.875 0.03125 Z M 0.875 0.03125 "/></g></g></g><g fill="#f2c744" fill-opacity="1"><g transform="translate(44.829767, 17.578077)"><g><path d="M 1.03125 -0.359375 L 1.125 -0.078125 C 1.082031 -0.046875 1.03125 -0.0195312 0.96875 0 C 0.914062 0.0195312 0.847656 0.03125 0.765625 0.03125 C 0.609375 0.03125 0.484375 -0.0078125 0.390625 -0.09375 C 0.304688 -0.1875 0.265625 -0.316406 0.265625 -0.484375 L 0.265625 -1.203125 L 0.046875 -1.203125 L 0.046875 -1.5 L 0.265625 -1.5 L 0.265625 -1.796875 L 0.65625 -1.859375 L 0.65625 -1.5 L 1.078125 -1.5 L 1.078125 -1.203125 L 0.65625 -1.203125 L 0.65625 -0.515625 C 0.65625 -0.441406 0.664062 -0.382812 0.6875 -0.34375 C 0.71875 -0.3125 0.765625 -0.296875 0.828125 -0.296875 C 0.898438 -0.296875 0.957031 -0.316406 1 -0.359375 Z M 1.03125 -0.359375 "/></g></g></g><g fill="#f2c744" fill-opacity="1"><g transform="translate(46.538597, 17.578077)"><g><path d="M 0.6875 0.03125 C 0.519531 0.03125 0.394531 -0.015625 0.3125 -0.109375 C 0.226562 -0.203125 0.1875 -0.332031 0.1875 -0.5 L 0.1875 -1.5 L 0.5625 -1.5 L 0.5625 -0.546875 C 0.5625 -0.460938 0.582031 -0.398438 0.625 -0.359375 C 0.664062 -0.316406 0.726562 -0.296875 0.8125 -0.296875 C 0.914062 -0.296875 0.992188 -0.328125 1.046875 -0.390625 C 1.109375 -0.460938 1.140625 -0.570312 1.140625 -0.71875 L 1.140625 -1.5 L 1.515625 -1.5 L 1.515625 0 L 1.15625 0 L 1.15625 -0.21875 L 1.125 -0.234375 C 1.082031 -0.140625 1.023438 -0.0703125 0.953125 -0.03125 C 0.878906 0.0078125 0.789062 0.03125 0.6875 0.03125 Z M 0.6875 0.03125 "/></g></g></g><g fill="#f2c744" fill-opacity="1"><g transform="translate(48.817256, 17.578077)"><g><path d="M 0.734375 0.03125 C 0.617188 0.03125 0.515625 0.00390625 0.421875 -0.046875 C 0.335938 -0.109375 0.269531 -0.195312 0.21875 -0.3125 C 0.164062 -0.4375 0.140625 -0.582031 0.140625 -0.75 C 0.140625 -0.914062 0.164062 -1.054688 0.21875 -1.171875 C 0.269531 -1.296875 0.34375 -1.382812 0.4375 -1.4375 C 0.53125 -1.5 0.640625 -1.53125 0.765625 -1.53125 C 0.859375 -1.53125 0.9375 -1.515625 1 -1.484375 C 1.070312 -1.453125 1.128906 -1.398438 1.171875 -1.328125 L 1.203125 -1.328125 L 1.203125 -2.09375 L 1.578125 -2.09375 L 1.578125 0 L 1.203125 0 L 1.203125 -0.1875 L 1.171875 -0.203125 C 1.128906 -0.128906 1.070312 -0.0703125 1 -0.03125 C 0.925781 0.0078125 0.835938 0.03125 0.734375 0.03125 Z M 0.859375 -0.296875 C 0.960938 -0.296875 1.046875 -0.332031 1.109375 -0.40625 C 1.171875 -0.476562 1.203125 -0.59375 1.203125 -0.75 C 1.203125 -0.90625 1.171875 -1.019531 1.109375 -1.09375 C 1.046875 -1.164062 0.960938 -1.203125 0.859375 -1.203125 C 0.753906 -1.203125 0.671875 -1.164062 0.609375 -1.09375 C 0.546875 -1.019531 0.515625 -0.90625 0.515625 -0.75 C 0.515625 -0.59375 0.546875 -0.476562 0.609375 -0.40625 C 0.671875 -0.332031 0.753906 -0.296875 0.859375 -0.296875 Z M 0.859375 -0.296875 "/></g></g></g><g fill="#f2c744" fill-opacity="1"><g transform="translate(51.158473, 17.578077)"><g><path d="M 0.40625 -1.671875 C 0.332031 -1.671875 0.273438 -1.691406 0.234375 -1.734375 C 0.191406 -1.773438 0.171875 -1.832031 0.171875 -1.90625 C 0.171875 -1.96875 0.191406 -2.019531 0.234375 -2.0625 C 0.273438 -2.101562 0.332031 -2.125 0.40625 -2.125 C 0.445312 -2.125 0.484375 -2.113281 0.515625 -2.09375 C 0.554688 -2.070312 0.585938 -2.046875 0.609375 -2.015625 C 0.628906 -1.984375 0.640625 -1.945312 0.640625 -1.90625 C 0.640625 -1.851562 0.628906 -1.8125 0.609375 -1.78125 C 0.585938 -1.75 0.554688 -1.722656 0.515625 -1.703125 C 0.484375 -1.679688 0.445312 -1.671875 0.40625 -1.671875 Z M 0.21875 0 L 0.21875 -1.5 L 0.59375 -1.5 L 0.59375 0 Z M 0.21875 0 "/></g></g></g><g fill="#f2c744" fill-opacity="1"><g transform="translate(52.509629, 17.578077)"><g><path d="M 0.875 0.03125 C 0.726562 0.03125 0.597656 0 0.484375 -0.0625 C 0.367188 -0.125 0.28125 -0.210938 0.21875 -0.328125 C 0.164062 -0.441406 0.140625 -0.582031 0.140625 -0.75 C 0.140625 -0.914062 0.164062 -1.054688 0.21875 -1.171875 C 0.28125 -1.285156 0.367188 -1.375 0.484375 -1.4375 C 0.597656 -1.5 0.726562 -1.53125 0.875 -1.53125 C 1.019531 -1.53125 1.144531 -1.5 1.25 -1.4375 C 1.363281 -1.375 1.453125 -1.285156 1.515625 -1.171875 C 1.578125 -1.054688 1.609375 -0.914062 1.609375 -0.75 C 1.609375 -0.582031 1.578125 -0.441406 1.515625 -0.328125 C 1.453125 -0.210938 1.363281 -0.125 1.25 -0.0625 C 1.144531 0 1.019531 0.03125 0.875 0.03125 Z M 0.875 -0.296875 C 1.101562 -0.296875 1.21875 -0.445312 1.21875 -0.75 C 1.21875 -0.90625 1.1875 -1.019531 1.125 -1.09375 C 1.070312 -1.164062 0.988281 -1.203125 0.875 -1.203125 C 0.632812 -1.203125 0.515625 -1.050781 0.515625 -0.75 C 0.515625 -0.445312 0.632812 -0.296875 0.875 -0.296875 Z M 0.875 -0.296875 "/></g></g></g><g fill="#f2c744" fill-opacity="1"><g transform="translate(54.796448, 17.578077)"><g><path d="M 0.703125 0.03125 C 0.597656 0.03125 0.503906 0.0195312 0.421875 0 C 0.335938 -0.03125 0.265625 -0.0664062 0.203125 -0.109375 C 0.140625 -0.148438 0.09375 -0.195312 0.0625 -0.25 L 0.28125 -0.484375 L 0.3125 -0.484375 C 0.351562 -0.410156 0.40625 -0.359375 0.46875 -0.328125 C 0.539062 -0.296875 0.617188 -0.28125 0.703125 -0.28125 C 0.773438 -0.28125 0.828125 -0.289062 0.859375 -0.3125 C 0.898438 -0.34375 0.921875 -0.378906 0.921875 -0.421875 C 0.921875 -0.460938 0.90625 -0.492188 0.875 -0.515625 C 0.851562 -0.546875 0.8125 -0.566406 0.75 -0.578125 L 0.5625 -0.625 C 0.40625 -0.664062 0.289062 -0.722656 0.21875 -0.796875 C 0.15625 -0.867188 0.125 -0.960938 0.125 -1.078125 C 0.125 -1.171875 0.144531 -1.25 0.1875 -1.3125 C 0.238281 -1.382812 0.304688 -1.4375 0.390625 -1.46875 C 0.484375 -1.507812 0.585938 -1.53125 0.703125 -1.53125 C 0.835938 -1.53125 0.945312 -1.507812 1.03125 -1.46875 C 1.125 -1.425781 1.195312 -1.375 1.25 -1.3125 L 1.046875 -1.09375 L 1.015625 -1.09375 C 0.972656 -1.144531 0.925781 -1.179688 0.875 -1.203125 C 0.820312 -1.222656 0.765625 -1.234375 0.703125 -1.234375 C 0.554688 -1.234375 0.484375 -1.1875 0.484375 -1.09375 C 0.484375 -1.050781 0.492188 -1.015625 0.515625 -0.984375 C 0.546875 -0.960938 0.597656 -0.945312 0.671875 -0.9375 L 0.859375 -0.890625 C 1.003906 -0.859375 1.113281 -0.804688 1.1875 -0.734375 C 1.257812 -0.660156 1.296875 -0.566406 1.296875 -0.453125 C 1.296875 -0.359375 1.269531 -0.273438 1.21875 -0.203125 C 1.175781 -0.128906 1.109375 -0.0703125 1.015625 -0.03125 C 0.929688 0.0078125 0.828125 0.03125 0.703125 0.03125 Z M 0.703125 0.03125 "/></g></g></g><path stroke-linecap="butt" transform="matrix(0.104487, 0, 0, 0.104487, 24.138403, 15.886567)" fill="none" stroke-linejoin="miter" d="M 16.54548 12.413309 C 13.330361 12.413309 12.7322 12.600234 12.059268 13.684402 C 11.12464 15.329347 9.442311 20.488491 9.442311 21.909125 C 9.442311 22.768983 9.853547 22.881138 13.741598 22.881138 C 13.592057 23.292374 13.218206 24.899934 12.395734 27.778587 C 12.208808 28.376748 11.984498 28.937525 11.872342 29.535686 L 11.648032 30.208618 C 9.404926 30.208618 9.14323 30.320774 8.582453 31.180631 C 7.722596 32.601265 6.115036 37.723024 6.115036 39.218428 C 6.115036 40.078286 6.451502 40.339982 7.834751 40.601677 C 7.984292 40.601677 8.245987 40.676447 8.507683 40.751218 C 7.834751 43.143864 7.647826 43.742026 6.937509 46.583294 C 6.451502 48.041313 6.040266 49.424562 5.890726 49.835798 C 5.255179 52.041519 5.105639 52.639681 5.105639 53.275228 C 5.105639 53.948159 5.516875 54.396781 6.301962 54.845402 C 7.647826 55.593104 11.947113 56.752042 13.330361 56.752042 C 14.414529 56.752042 15.050076 56.266036 15.685623 54.994942 C 16.39594 53.536923 17.891344 48.714245 18.938127 44.377573 C 19.199823 43.368175 19.424133 42.358777 19.685829 41.274609 L 19.83537 40.751218 L 20.545687 40.751218 L 23.087874 40.825988 L 25.891756 40.900758 L 28.733024 40.938143 C 30.116273 40.938143 30.527509 40.676447 31.050901 39.66705 C 31.835988 37.872565 33.069696 33.461122 33.069696 32.339569 C 33.069696 31.068476 32.58369 30.470314 31.536907 30.320774 C 30.789205 30.208618 28.770409 30.208618 25.031899 30.208618 L 22.751408 30.208618 C 23.49911 27.516891 23.760805 26.432723 23.760805 26.058872 C 23.760805 24.974704 22.975718 24.413927 18.601661 22.768983 C 20.022295 22.768983 20.545687 22.768983 22.900948 22.843753 C 24.433737 22.881138 25.630061 22.955908 26.302993 23.030678 C 28.471329 23.105449 30.004118 23.142834 30.60228 23.142834 C 31.649062 23.254989 32.845386 23.292374 33.256622 23.292374 C 34.527715 23.292374 34.938952 22.881138 35.686654 21.086653 C 36.396971 19.217398 37.256828 15.815353 37.256828 14.731185 C 37.256828 13.721787 36.995132 13.534862 35.462343 13.198396 C 32.396765 12.675005 28.733024 12.450694 17.480108 12.413309 Z M 41.331804 23.55407 C 40.397177 23.55407 39.948556 23.62884 39.537319 23.965306 C 39.013928 24.376542 39.013928 24.376542 37.069903 30.208618 C 34.378175 38.395956 30.789205 51.779823 30.789205 53.536923 C 30.789205 54.396781 31.200441 54.920172 32.247224 55.480949 C 33.406162 56.07911 35.798809 56.602502 37.331598 56.602502 C 39.68686 56.602502 40.135481 56.340806 40.621487 54.396781 C 40.733643 54.060315 40.808413 53.649079 40.957953 53.275228 C 41.630885 50.5835 42.229047 48.041313 42.827209 45.573896 C 43.612296 42.470932 46.827415 30.844165 47.238651 29.573072 C 47.986353 27.36735 48.173278 26.582263 48.173278 26.171027 C 48.173278 24.563468 45.556321 23.55407 41.331804 23.55407 Z M 63.015165 48.303009 C 60.996369 48.377779 59.052344 48.377779 57.370014 48.377779 C 56.323231 48.377779 55.837225 48.377779 54.977367 48.303009 C 55.650299 45.16266 58.603722 34.582675 60.061742 29.909537 C 60.958984 27.255195 61.14591 26.357953 61.14591 25.834561 C 61.14591 25.38594 60.958984 25.049474 60.472978 24.825163 C 59.052344 24.152231 56.061535 23.516685 54.528746 23.516685 C 52.584721 23.516685 52.43518 23.62884 51.650093 26.432723 C 50.902391 29.04968 50.715466 29.647842 49.855608 32.676035 C 46.902185 42.433547 45.406781 48.228238 45.406781 49.910568 C 45.406781 50.65827 45.780632 51.256432 47.051725 53.125687 C 48.6219 55.480949 49.444372 56.191266 50.52854 56.527732 C 50.790236 56.677272 53.108112 56.752042 57.482169 56.789427 C 62.491773 56.789427 62.529158 56.789427 63.27686 56.00434 C 64.024563 55.069712 65.370426 50.919966 65.370426 49.424562 C 65.370426 48.564704 64.95919 48.303009 63.762867 48.303009 Z M 94.231727 37.947335 C 94.119571 38.732422 94.044801 39.143658 93.484025 41.199839 C 92.848478 43.742026 91.091378 53.387383 91.091378 54.508936 C 91.091378 55.107098 91.240918 55.480949 91.76431 55.780029 C 92.624167 56.378191 94.792503 56.864197 96.624373 56.864197 C 98.119777 56.864197 98.904865 56.602502 99.503026 55.92957 C 100.063803 55.256638 100.063803 55.181868 100.400269 51.331202 L 102.456449 29.834767 C 102.60599 28.115052 102.643375 27.442121 102.643375 27.105655 C 102.643375 26.245797 102.381679 25.759791 101.671362 25.31117 C 100.400269 24.488697 97.708541 23.815766 95.914056 23.815766 C 95.166354 23.815766 94.418652 24.114846 93.970031 24.563468 C 93.297099 25.31117 93.297099 25.31117 90.23152 30.470314 C 88.137955 33.947129 86.530395 37.124863 83.277891 44.377573 C 83.539587 42.022311 83.614357 40.601677 83.614357 38.209031 C 83.614357 31.741408 83.203121 26.357953 82.604959 25.498095 C 82.006798 24.638238 78.529983 23.62884 75.838255 23.62884 C 73.445609 23.62884 73.445609 23.62884 71.239888 29.460916 C 68.62293 36.003309 63.725482 52.303215 63.725482 54.32201 C 63.725482 55.518334 66.491979 56.677272 69.482788 56.677272 C 70.23049 56.677272 70.828651 56.452961 71.314658 55.92957 C 71.725894 55.480949 71.725894 55.480949 72.510981 52.377985 L 76.436417 37.461328 C 76.361647 38.881962 76.361647 38.881962 76.324262 41.42415 C 76.099951 46.508524 76.099951 46.91976 76.099951 50.321804 C 76.099951 54.24724 76.174721 54.845402 76.772883 55.331408 C 77.63274 56.07911 79.838462 56.677272 81.520791 56.677272 C 82.791885 56.677272 83.614357 56.378191 84.212519 55.742644 C 84.66114 55.256638 84.66114 55.256638 86.49301 52.004134 Z M 94.231727 37.947335 " stroke="#000000" stroke-width="17.554741" stroke-opacity="1" stroke-miterlimit="4"/><g fill="#ffffff" fill-opacity="1"><g transform="translate(24.672265, 21.842315)"><g><path d="M 1.195312 -4.660156 C 0.859375 -4.660156 0.796875 -4.640625 0.726562 -4.527344 C 0.628906 -4.351562 0.453125 -3.816406 0.453125 -3.667969 C 0.453125 -3.578125 0.496094 -3.5625 0.902344 -3.5625 C 0.886719 -3.519531 0.84375 -3.355469 0.761719 -3.054688 C 0.742188 -2.992188 0.71875 -2.933594 0.707031 -2.871094 L 0.683594 -2.800781 C 0.445312 -2.800781 0.417969 -2.789062 0.363281 -2.695312 C 0.273438 -2.550781 0.105469 -2.011719 0.105469 -1.859375 C 0.105469 -1.769531 0.140625 -1.738281 0.285156 -1.710938 C 0.300781 -1.710938 0.328125 -1.703125 0.355469 -1.699219 C 0.285156 -1.445312 0.265625 -1.382812 0.1875 -1.089844 C 0.140625 -0.9375 0.0976562 -0.789062 0.0820312 -0.746094 C 0.015625 -0.515625 0 -0.453125 0 -0.390625 C 0 -0.320312 0.0429688 -0.273438 0.125 -0.222656 C 0.265625 -0.148438 0.710938 -0.0273438 0.859375 -0.0273438 C 0.972656 -0.0273438 1.042969 -0.078125 1.105469 -0.210938 C 1.179688 -0.363281 1.335938 -0.867188 1.445312 -1.320312 C 1.472656 -1.425781 1.496094 -1.53125 1.523438 -1.640625 L 1.539062 -1.699219 L 1.613281 -1.699219 L 1.878906 -1.691406 L 2.464844 -1.675781 C 2.613281 -1.675781 2.65625 -1.703125 2.710938 -1.808594 C 2.792969 -2 2.921875 -2.460938 2.921875 -2.578125 C 2.921875 -2.710938 2.871094 -2.773438 2.761719 -2.789062 C 2.683594 -2.800781 2.472656 -2.800781 2.082031 -2.800781 L 1.84375 -2.800781 C 1.921875 -3.082031 1.949219 -3.191406 1.949219 -3.234375 C 1.949219 -3.347656 1.867188 -3.402344 1.410156 -3.578125 C 1.558594 -3.578125 1.613281 -3.578125 1.859375 -3.570312 C 2.019531 -3.5625 2.144531 -3.554688 2.214844 -3.550781 C 2.4375 -3.542969 2.597656 -3.535156 2.660156 -3.535156 C 2.773438 -3.527344 2.898438 -3.519531 2.941406 -3.519531 C 3.074219 -3.519531 3.117188 -3.5625 3.191406 -3.753906 C 3.269531 -3.949219 3.359375 -4.304688 3.359375 -4.414062 C 3.359375 -4.519531 3.332031 -4.542969 3.171875 -4.578125 C 2.851562 -4.632812 2.464844 -4.652344 1.292969 -4.660156 Z M 1.195312 -4.660156 "/></g></g></g><g fill="#ffffff" fill-opacity="1"><g transform="translate(27.417669, 21.842315)"><g><path d="M 1.042969 -3.492188 C 0.941406 -3.492188 0.894531 -3.488281 0.851562 -3.453125 C 0.796875 -3.410156 0.796875 -3.410156 0.59375 -2.800781 C 0.3125 -1.941406 -0.0625 -0.546875 -0.0625 -0.363281 C -0.0625 -0.273438 -0.0195312 -0.214844 0.0898438 -0.160156 C 0.210938 -0.0976562 0.460938 -0.0429688 0.621094 -0.0429688 C 0.867188 -0.0429688 0.914062 -0.0703125 0.964844 -0.273438 C 0.976562 -0.308594 0.984375 -0.347656 1 -0.390625 C 1.070312 -0.671875 1.132812 -0.9375 1.195312 -1.195312 C 1.277344 -1.515625 1.613281 -2.730469 1.65625 -2.863281 C 1.734375 -3.09375 1.753906 -3.179688 1.753906 -3.222656 C 1.753906 -3.390625 1.480469 -3.492188 1.042969 -3.492188 Z M 1.042969 -3.492188 "/></g></g></g><g fill="#ffffff" fill-opacity="1"><g transform="translate(28.863688, 21.842315)"><g><path d="M 1.859375 -0.910156 C 1.648438 -0.902344 1.445312 -0.902344 1.273438 -0.902344 C 1.160156 -0.902344 1.109375 -0.902344 1.019531 -0.910156 C 1.089844 -1.238281 1.398438 -2.339844 1.550781 -2.828125 C 1.640625 -3.109375 1.664062 -3.199219 1.664062 -3.257812 C 1.664062 -3.304688 1.640625 -3.339844 1.59375 -3.359375 C 1.445312 -3.429688 1.132812 -3.5 0.972656 -3.5 C 0.769531 -3.5 0.753906 -3.488281 0.671875 -3.191406 C 0.59375 -2.921875 0.574219 -2.859375 0.480469 -2.542969 C 0.175781 -1.523438 0.0195312 -0.914062 0.0195312 -0.742188 C 0.0195312 -0.664062 0.0546875 -0.601562 0.1875 -0.40625 C 0.355469 -0.160156 0.441406 -0.0820312 0.550781 -0.0507812 C 0.578125 -0.0351562 0.824219 -0.0273438 1.277344 -0.0195312 C 1.800781 -0.0195312 1.808594 -0.0195312 1.886719 -0.105469 C 1.964844 -0.203125 2.101562 -0.636719 2.101562 -0.789062 C 2.101562 -0.878906 2.0625 -0.910156 1.933594 -0.910156 Z M 1.859375 -0.910156 "/></g></g></g><g fill="#ffffff" fill-opacity="1"><g transform="translate(30.861597, 21.842315)"><g><path d="M 3.125 -1.992188 C 3.109375 -1.90625 3.101562 -1.867188 3.046875 -1.648438 C 2.976562 -1.382812 2.792969 -0.378906 2.792969 -0.257812 C 2.792969 -0.195312 2.808594 -0.160156 2.863281 -0.125 C 2.957031 -0.0625 3.179688 -0.015625 3.375 -0.015625 C 3.527344 -0.015625 3.613281 -0.0429688 3.675781 -0.113281 C 3.730469 -0.183594 3.730469 -0.1875 3.765625 -0.59375 L 3.984375 -2.835938 C 3.996094 -3.019531 4.003906 -3.089844 4.003906 -3.125 C 4.003906 -3.214844 3.976562 -3.261719 3.898438 -3.3125 C 3.765625 -3.394531 3.488281 -3.464844 3.296875 -3.464844 C 3.222656 -3.464844 3.144531 -3.4375 3.09375 -3.390625 C 3.023438 -3.3125 3.023438 -3.3125 2.703125 -2.773438 C 2.488281 -2.410156 2.320312 -2.074219 1.976562 -1.320312 C 2.003906 -1.566406 2.011719 -1.710938 2.011719 -1.964844 C 2.011719 -2.640625 1.96875 -3.199219 1.90625 -3.289062 C 1.84375 -3.382812 1.480469 -3.488281 1.203125 -3.488281 C 0.949219 -3.488281 0.949219 -3.488281 0.71875 -2.878906 C 0.445312 -2.195312 -0.0625 -0.488281 -0.0625 -0.28125 C -0.0625 -0.152344 0.222656 -0.0351562 0.539062 -0.0351562 C 0.613281 -0.0351562 0.679688 -0.0546875 0.726562 -0.113281 C 0.769531 -0.160156 0.769531 -0.160156 0.851562 -0.480469 L 1.265625 -2.039062 C 1.257812 -1.894531 1.257812 -1.894531 1.25 -1.628906 C 1.230469 -1.097656 1.230469 -1.054688 1.230469 -0.699219 C 1.230469 -0.285156 1.238281 -0.222656 1.300781 -0.175781 C 1.390625 -0.0976562 1.621094 -0.0351562 1.796875 -0.0351562 C 1.929688 -0.0351562 2.011719 -0.0625 2.074219 -0.132812 C 2.125 -0.183594 2.125 -0.183594 2.3125 -0.523438 Z M 3.125 -1.992188 "/></g></g></g><g fill="#ffffff" fill-opacity="1"><g transform="translate(34.822179, 21.842315)"><g/></g></g></svg>